<?xml version="1.0" encoding="UTF-8" standalone="no"?>
<!DOCTYPE svg PUBLIC "-//W3C//DTD SVG 1.1//EN"
 "http://www.w3.org/Graphics/SVG/1.1/DTD/svg11.dtd">
<!-- Generated by graphviz version 5.0.0 (20220707.1540)
 -->
<!-- Title: G Pages: 1 -->
<svg width="1794pt" height="298pt"
 viewBox="0.00 0.00 1793.92 298.00" xmlns="http://www.w3.org/2000/svg" xmlns:xlink="http://www.w3.org/1999/xlink">
<g id="graph0" class="graph" transform="scale(1 1) rotate(0) translate(4 294)">
<title>G</title>
<polygon fill="white" stroke="transparent" points="-4,4 -4,-294 1789.92,-294 1789.92,4 -4,4"/>
<!-- root -->
<g id="node1" class="node">
<title>root</title>
<path fill="none" stroke="black" d="M42,-163C42,-163 12,-163 12,-163 6,-163 0,-157 0,-151 0,-151 0,-139 0,-139 0,-133 6,-127 12,-127 12,-127 42,-127 42,-127 48,-127 54,-133 54,-139 54,-139 54,-151 54,-151 54,-157 48,-163 42,-163"/>
<text text-anchor="middle" x="27" y="-140.8" font-family="Times,serif" font-size="14.00">root</text>
</g>
<!-- @aws&#45;amplify/ui&#45;react -->
<g id="node2" class="node">
<title>@aws&#45;amplify/ui&#45;react</title>
<path fill="none" stroke="black" d="M223.26,-163C223.26,-163 102.25,-163 102.25,-163 96.25,-163 90.25,-157 90.25,-151 90.25,-151 90.25,-139 90.25,-139 90.25,-133 96.25,-127 102.25,-127 102.25,-127 223.26,-127 223.26,-127 229.26,-127 235.26,-133 235.26,-139 235.26,-139 235.26,-151 235.26,-151 235.26,-157 229.26,-163 223.26,-163"/>
<text text-anchor="middle" x="162.75" y="-140.8" font-family="Times,serif" font-size="14.00">@aws&#45;amplify/ui&#45;react</text>
</g>
<!-- root&#45;&gt;@aws&#45;amplify/ui&#45;react -->
<g id="edge1" class="edge">
<title>root&#45;&gt;@aws&#45;amplify/ui&#45;react</title>
<path fill="none" stroke="black" d="M54.11,-145C61.81,-145 70.68,-145 79.96,-145"/>
<polygon fill="black" stroke="black" points="80.15,-148.5 90.15,-145 80.15,-141.5 80.15,-148.5"/>
</g>
<!-- @aws&#45;amplify/ui&#45;react&#45;core -->
<g id="node3" class="node">
<title>@aws&#45;amplify/ui&#45;react&#45;core</title>
<path fill="none" stroke="black" d="M433.9,-163C433.9,-163 283.38,-163 283.38,-163 277.38,-163 271.38,-157 271.38,-151 271.38,-151 271.38,-139 271.38,-139 271.38,-133 277.38,-127 283.38,-127 283.38,-127 433.9,-127 433.9,-127 439.9,-127 445.9,-133 445.9,-139 445.9,-139 445.9,-151 445.9,-151 445.9,-157 439.9,-163 433.9,-163"/>
<text text-anchor="middle" x="358.64" y="-140.8" font-family="Times,serif" font-size="14.00">@aws&#45;amplify/ui&#45;react&#45;core</text>
</g>
<!-- @aws&#45;amplify/ui&#45;react&#45;&gt;@aws&#45;amplify/ui&#45;react&#45;core -->
<g id="edge2" class="edge">
<title>@aws&#45;amplify/ui&#45;react&#45;&gt;@aws&#45;amplify/ui&#45;react&#45;core</title>
<path fill="none" stroke="black" d="M235.4,-145C243.77,-145 252.42,-145 261.06,-145"/>
<polygon fill="black" stroke="black" points="261.18,-148.5 271.18,-145 261.18,-141.5 261.18,-148.5"/>
</g>
<!-- @aws&#45;amplify/ui -->
<g id="node4" class="node">
<title>@aws&#45;amplify/ui</title>
<path fill="none" stroke="black" d="M583.24,-121C583.24,-121 493.94,-121 493.94,-121 487.94,-121 481.94,-115 481.94,-109 481.94,-109 481.94,-97 481.94,-97 481.94,-91 487.94,-85 493.94,-85 493.94,-85 583.24,-85 583.24,-85 589.24,-85 595.24,-91 595.24,-97 595.24,-97 595.24,-109 595.24,-109 595.24,-115 589.24,-121 583.24,-121"/>
<text text-anchor="middle" x="538.59" y="-98.8" font-family="Times,serif" font-size="14.00">@aws&#45;amplify/ui</text>
</g>
<!-- @aws&#45;amplify/ui&#45;react&#45;&gt;@aws&#45;amplify/ui -->
<g id="edge3" class="edge">
<title>@aws&#45;amplify/ui&#45;react&#45;&gt;@aws&#45;amplify/ui</title>
<path fill="none" stroke="black" d="M227.16,-126.99C241.63,-123.48 257.02,-120.2 271.51,-118 339.19,-107.71 417.52,-104.3 471.58,-103.26"/>
<polygon fill="black" stroke="black" points="471.79,-106.76 481.73,-103.09 471.67,-99.76 471.79,-106.76"/>
</g>
<!-- aws&#45;amplify -->
<g id="node5" class="node">
<title>aws&#45;amplify</title>
<path fill="none" stroke="black" d="M705.39,-167C705.39,-167 643.43,-167 643.43,-167 637.43,-167 631.43,-161 631.43,-155 631.43,-155 631.43,-143 631.43,-143 631.43,-137 637.43,-131 643.43,-131 643.43,-131 705.39,-131 705.39,-131 711.39,-131 717.39,-137 717.39,-143 717.39,-143 717.39,-155 717.39,-155 717.39,-161 711.39,-167 705.39,-167"/>
<text text-anchor="middle" x="674.41" y="-144.8" font-family="Times,serif" font-size="14.00">aws&#45;amplify</text>
</g>
<!-- @aws&#45;amplify/ui&#45;react&#45;&gt;aws&#45;amplify -->
<g id="edge4" class="edge">
<title>@aws&#45;amplify/ui&#45;react&#45;&gt;aws&#45;amplify</title>
<path fill="none" stroke="black" d="M224.8,-163.06C239.93,-166.77 256.19,-170.11 271.51,-172 414.45,-189.64 452.36,-178.66 595.42,-162 603.84,-161.02 612.75,-159.75 621.41,-158.4"/>
<polygon fill="black" stroke="black" points="622.11,-161.83 631.42,-156.78 620.99,-154.92 622.11,-161.83"/>
</g>
<!-- @aws&#45;amplify/ui&#45;react&#45;core&#45;&gt;@aws&#45;amplify/ui -->
<g id="edge5" class="edge">
<title>@aws&#45;amplify/ui&#45;react&#45;core&#45;&gt;@aws&#45;amplify/ui</title>
<path fill="none" stroke="black" d="M436.14,-126.94C448.01,-124.14 460.19,-121.27 471.81,-118.53"/>
<polygon fill="black" stroke="black" points="472.91,-121.86 481.84,-116.16 471.31,-115.05 472.91,-121.86"/>
</g>
<!-- @aws&#45;amplify/ui&#45;react&#45;core&#45;&gt;aws&#45;amplify -->
<g id="edge6" class="edge">
<title>@aws&#45;amplify/ui&#45;react&#45;core&#45;&gt;aws&#45;amplify</title>
<path fill="none" stroke="black" d="M445.79,-146.1C501.91,-146.81 573.29,-147.72 621.02,-148.33"/>
<polygon fill="black" stroke="black" points="621.08,-151.83 631.12,-148.46 621.17,-144.83 621.08,-151.83"/>
</g>
<!-- @aws&#45;amplify/ui&#45;&gt;aws&#45;amplify -->
<g id="edge7" class="edge">
<title>@aws&#45;amplify/ui&#45;&gt;aws&#45;amplify</title>
<path fill="none" stroke="black" d="M592.09,-121.05C601.87,-124.41 612.08,-127.92 621.82,-131.27"/>
<polygon fill="black" stroke="black" points="620.79,-134.61 631.38,-134.55 623.06,-127.99 620.79,-134.61"/>
</g>
<!-- @aws&#45;amplify/analytics -->
<g id="node6" class="node">
<title>@aws&#45;amplify/analytics</title>
<path fill="none" stroke="black" d="M903.79,-290C903.79,-290 775.75,-290 775.75,-290 769.75,-290 763.75,-284 763.75,-278 763.75,-278 763.75,-266 763.75,-266 763.75,-260 769.75,-254 775.75,-254 775.75,-254 903.79,-254 903.79,-254 909.79,-254 915.79,-260 915.79,-266 915.79,-266 915.79,-278 915.79,-278 915.79,-284 909.79,-290 903.79,-290"/>
<text text-anchor="middle" x="839.77" y="-267.8" font-family="Times,serif" font-size="14.00">@aws&#45;amplify/analytics</text>
</g>
<!-- aws&#45;amplify&#45;&gt;@aws&#45;amplify/analytics -->
<g id="edge8" class="edge">
<title>aws&#45;amplify&#45;&gt;@aws&#45;amplify/analytics</title>
<path fill="none" stroke="black" d="M685.68,-167.27C698.73,-188.87 723.21,-224.47 753.4,-245 755.53,-246.45 757.75,-247.83 760.03,-249.14"/>
<polygon fill="black" stroke="black" points="758.62,-252.35 769.11,-253.84 761.84,-246.13 758.62,-252.35"/>
</g>
<!-- @aws&#45;amplify/api -->
<g id="node7" class="node">
<title>@aws&#45;amplify/api</title>
<path fill="none" stroke="black" d="M1094.42,-194C1094.42,-194 998.69,-194 998.69,-194 992.69,-194 986.69,-188 986.69,-182 986.69,-182 986.69,-170 986.69,-170 986.69,-164 992.69,-158 998.69,-158 998.69,-158 1094.42,-158 1094.42,-158 1100.42,-158 1106.42,-164 1106.42,-170 1106.42,-170 1106.42,-182 1106.42,-182 1106.42,-188 1100.42,-194 1094.42,-194"/>
<text text-anchor="middle" x="1046.56" y="-171.8" font-family="Times,serif" font-size="14.00">@aws&#45;amplify/api</text>
</g>
<!-- aws&#45;amplify&#45;&gt;@aws&#45;amplify/api -->
<g id="edge9" class="edge">
<title>aws&#45;amplify&#45;&gt;@aws&#45;amplify/api</title>
<path fill="none" stroke="black" d="M717.51,-152.07C780.49,-156.66 899.94,-165.38 976.01,-170.93"/>
<polygon fill="black" stroke="black" points="976.21,-174.45 986.44,-171.69 976.72,-167.47 976.21,-174.45"/>
</g>
<!-- @aws&#45;amplify/auth -->
<g id="node8" class="node">
<title>@aws&#45;amplify/auth</title>
<path fill="none" stroke="black" d="M891.14,-144C891.14,-144 788.41,-144 788.41,-144 782.41,-144 776.41,-138 776.41,-132 776.41,-132 776.41,-120 776.41,-120 776.41,-114 782.41,-108 788.41,-108 788.41,-108 891.14,-108 891.14,-108 897.14,-108 903.14,-114 903.14,-120 903.14,-120 903.14,-132 903.14,-132 903.14,-138 897.14,-144 891.14,-144"/>
<text text-anchor="middle" x="839.77" y="-121.8" font-family="Times,serif" font-size="14.00">@aws&#45;amplify/auth</text>
</g>
<!-- aws&#45;amplify&#45;&gt;@aws&#45;amplify/auth -->
<g id="edge10" class="edge">
<title>aws&#45;amplify&#45;&gt;@aws&#45;amplify/auth</title>
<path fill="none" stroke="black" d="M717.48,-143.08C732.27,-140.99 749.36,-138.59 765.95,-136.25"/>
<polygon fill="black" stroke="black" points="766.78,-139.67 776.19,-134.81 765.8,-132.74 766.78,-139.67"/>
</g>
<!-- @aws&#45;amplify/datastore -->
<g id="node9" class="node">
<title>@aws&#45;amplify/datastore</title>
<path fill="none" stroke="black" d="M904.56,-236C904.56,-236 774.98,-236 774.98,-236 768.98,-236 762.98,-230 762.98,-224 762.98,-224 762.98,-212 762.98,-212 762.98,-206 768.98,-200 774.98,-200 774.98,-200 904.56,-200 904.56,-200 910.56,-200 916.56,-206 916.56,-212 916.56,-212 916.56,-224 916.56,-224 916.56,-230 910.56,-236 904.56,-236"/>
<text text-anchor="middle" x="839.77" y="-213.8" font-family="Times,serif" font-size="14.00">@aws&#45;amplify/datastore</text>
</g>
<!-- aws&#45;amplify&#45;&gt;@aws&#45;amplify/datastore -->
<g id="edge11" class="edge">
<title>aws&#45;amplify&#45;&gt;@aws&#45;amplify/datastore</title>
<path fill="none" stroke="black" d="M712.01,-167.15C724.98,-173.37 739.74,-180.21 753.4,-186 761.55,-189.45 770.22,-192.93 778.78,-196.25"/>
<polygon fill="black" stroke="black" points="777.79,-199.61 788.38,-199.92 780.29,-193.08 777.79,-199.61"/>
</g>
<!-- @aws&#45;amplify/notifications -->
<g id="node10" class="node">
<title>@aws&#45;amplify/notifications</title>
<path fill="none" stroke="black" d="M914.02,-90C914.02,-90 765.52,-90 765.52,-90 759.52,-90 753.52,-84 753.52,-78 753.52,-78 753.52,-66 753.52,-66 753.52,-60 759.52,-54 765.52,-54 765.52,-54 914.02,-54 914.02,-54 920.02,-54 926.02,-60 926.02,-66 926.02,-66 926.02,-78 926.02,-78 926.02,-84 920.02,-90 914.02,-90"/>
<text text-anchor="middle" x="839.77" y="-67.8" font-family="Times,serif" font-size="14.00">@aws&#45;amplify/notifications</text>
</g>
<!-- aws&#45;amplify&#45;&gt;@aws&#45;amplify/notifications -->
<g id="edge12" class="edge">
<title>aws&#45;amplify&#45;&gt;@aws&#45;amplify/notifications</title>
<path fill="none" stroke="black" d="M700.07,-130.79C714.95,-120.43 734.61,-107.8 753.4,-99 757.38,-97.13 761.53,-95.35 765.76,-93.65"/>
<polygon fill="black" stroke="black" points="767.02,-96.91 775.11,-90.07 764.52,-90.38 767.02,-96.91"/>
</g>
<!-- @aws&#45;amplify/storage -->
<g id="node11" class="node">
<title>@aws&#45;amplify/storage</title>
<path fill="none" stroke="black" d="M899.46,-36C899.46,-36 780.08,-36 780.08,-36 774.08,-36 768.08,-30 768.08,-24 768.08,-24 768.08,-12 768.08,-12 768.08,-6 774.08,0 780.08,0 780.08,0 899.46,0 899.46,0 905.46,0 911.46,-6 911.46,-12 911.46,-12 911.46,-24 911.46,-24 911.46,-30 905.46,-36 899.46,-36"/>
<text text-anchor="middle" x="839.77" y="-13.8" font-family="Times,serif" font-size="14.00">@aws&#45;amplify/storage</text>
</g>
<!-- aws&#45;amplify&#45;&gt;@aws&#45;amplify/storage -->
<g id="edge13" class="edge">
<title>aws&#45;amplify&#45;&gt;@aws&#45;amplify/storage</title>
<path fill="none" stroke="black" d="M684.43,-130.82C696.85,-107.6 721.36,-67.72 753.4,-45 755.3,-43.65 757.28,-42.36 759.31,-41.14"/>
<polygon fill="black" stroke="black" points="761.39,-43.99 768.53,-36.17 758.07,-37.83 761.39,-43.99"/>
</g>
<!-- @aws&#45;amplify/api&#45;graphql -->
<g id="node12" class="node">
<title>@aws&#45;amplify/api&#45;graphql</title>
<path fill="none" stroke="black" d="M1322.41,-240C1322.41,-240 1178.82,-240 1178.82,-240 1172.82,-240 1166.82,-234 1166.82,-228 1166.82,-228 1166.82,-216 1166.82,-216 1166.82,-210 1172.82,-204 1178.82,-204 1178.82,-204 1322.41,-204 1322.41,-204 1328.41,-204 1334.41,-210 1334.41,-216 1334.41,-216 1334.41,-228 1334.41,-228 1334.41,-234 1328.41,-240 1322.41,-240"/>
<text text-anchor="middle" x="1250.62" y="-217.8" font-family="Times,serif" font-size="14.00">@aws&#45;amplify/api&#45;graphql</text>
</g>
<!-- @aws&#45;amplify/api&#45;&gt;@aws&#45;amplify/api&#45;graphql -->
<g id="edge14" class="edge">
<title>@aws&#45;amplify/api&#45;&gt;@aws&#45;amplify/api&#45;graphql</title>
<path fill="none" stroke="black" d="M1106.54,-189.43C1123.43,-193.27 1142.22,-197.55 1160.48,-201.71"/>
<polygon fill="black" stroke="black" points="1159.74,-205.13 1170.27,-203.94 1161.29,-198.3 1159.74,-205.13"/>
</g>
<!-- @aws&#45;amplify/api&#45;rest -->
<g id="node13" class="node">
<title>@aws&#45;amplify/api&#45;rest</title>
<path fill="none" stroke="black" d="M1516.86,-171C1516.86,-171 1396.38,-171 1396.38,-171 1390.38,-171 1384.38,-165 1384.38,-159 1384.38,-159 1384.38,-147 1384.38,-147 1384.38,-141 1390.38,-135 1396.38,-135 1396.38,-135 1516.86,-135 1516.86,-135 1522.86,-135 1528.86,-141 1528.86,-147 1528.86,-147 1528.86,-159 1528.86,-159 1528.86,-165 1522.86,-171 1516.86,-171"/>
<text text-anchor="middle" x="1456.62" y="-148.8" font-family="Times,serif" font-size="14.00">@aws&#45;amplify/api&#45;rest</text>
</g>
<!-- @aws&#45;amplify/api&#45;&gt;@aws&#45;amplify/api&#45;rest -->
<g id="edge15" class="edge">
<title>@aws&#45;amplify/api&#45;&gt;@aws&#45;amplify/api&#45;rest</title>
<path fill="none" stroke="black" d="M1106.68,-168.05C1125.88,-165.75 1147.3,-163.46 1166.97,-162 1236.78,-156.83 1316.3,-154.62 1374.17,-153.68"/>
<polygon fill="black" stroke="black" points="1374.41,-157.18 1384.36,-153.53 1374.31,-150.18 1374.41,-157.18"/>
</g>
<!-- @aws&#45;amplify/data&#45;schema -->
<g id="node14" class="node">
<title>@aws&#45;amplify/data&#45;schema</title>
<path fill="none" stroke="black" d="M1530.84,-232C1530.84,-232 1382.4,-232 1382.4,-232 1376.4,-232 1370.4,-226 1370.4,-220 1370.4,-220 1370.4,-208 1370.4,-208 1370.4,-202 1376.4,-196 1382.4,-196 1382.4,-196 1530.84,-196 1530.84,-196 1536.84,-196 1542.84,-202 1542.84,-208 1542.84,-208 1542.84,-220 1542.84,-220 1542.84,-226 1536.84,-232 1530.84,-232"/>
<text text-anchor="middle" x="1456.62" y="-209.8" font-family="Times,serif" font-size="14.00">@aws&#45;amplify/data&#45;schema</text>
</g>
<!-- @aws&#45;amplify/api&#45;&gt;@aws&#45;amplify/data&#45;schema -->
<g id="edge16" class="edge">
<title>@aws&#45;amplify/api&#45;&gt;@aws&#45;amplify/data&#45;schema</title>
<path fill="none" stroke="black" d="M1106.45,-178.37C1164.5,-181.06 1255.68,-186.26 1334.26,-195 1342.73,-195.94 1351.51,-197.05 1360.31,-198.26"/>
<polygon fill="black" stroke="black" points="1359.83,-201.72 1370.22,-199.65 1360.8,-194.79 1359.83,-201.72"/>
</g>
<!-- @aws&#45;amplify/react&#45;native -->
<g id="node16" class="node">
<title>@aws&#45;amplify/react&#45;native</title>
<path fill="#ffcccc" stroke="black" d="M1118.88,-140C1118.88,-140 974.23,-140 974.23,-140 968.23,-140 962.23,-134 962.23,-128 962.23,-128 962.23,-116 962.23,-116 962.23,-110 968.23,-104 974.23,-104 974.23,-104 1118.88,-104 1118.88,-104 1124.88,-104 1130.88,-110 1130.88,-116 1130.88,-116 1130.88,-128 1130.88,-128 1130.88,-134 1124.88,-140 1118.88,-140"/>
<text text-anchor="middle" x="1046.56" y="-117.8" font-family="Times,serif" font-size="14.00">@aws&#45;amplify/react&#45;native</text>
</g>
<!-- @aws&#45;amplify/auth&#45;&gt;@aws&#45;amplify/react&#45;native -->
<g id="edge20" class="edge">
<title>@aws&#45;amplify/auth&#45;&gt;@aws&#45;amplify/react&#45;native</title>
<path fill="none" stroke="black" d="M903.33,-124.78C918.62,-124.48 935.32,-124.15 951.72,-123.83"/>
<polygon fill="black" stroke="black" points="951.95,-127.33 961.88,-123.63 951.81,-120.33 951.95,-127.33"/>
</g>
<!-- @aws&#45;amplify/datastore&#45;&gt;@aws&#45;amplify/api -->
<g id="edge21" class="edge">
<title>@aws&#45;amplify/datastore&#45;&gt;@aws&#45;amplify/api</title>
<path fill="none" stroke="black" d="M916.44,-202.48C936.14,-198.44 957.25,-194.11 976.58,-190.15"/>
<polygon fill="black" stroke="black" points="977.42,-193.55 986.51,-188.11 976.01,-186.69 977.42,-193.55"/>
</g>
<!-- @aws&#45;amplify/datastore&#45;&gt;@aws&#45;amplify/api&#45;graphql -->
<g id="edge22" class="edge">
<title>@aws&#45;amplify/datastore&#45;&gt;@aws&#45;amplify/api&#45;graphql</title>
<path fill="none" stroke="black" d="M916.71,-218.74C984.53,-219.41 1084.08,-220.38 1156.65,-221.09"/>
<polygon fill="black" stroke="black" points="1156.67,-224.59 1166.7,-221.19 1156.73,-217.59 1156.67,-224.59"/>
</g>
<!-- @aws&#45;amplify/api&#45;graphql&#45;&gt;@aws&#45;amplify/api&#45;rest -->
<g id="edge17" class="edge">
<title>@aws&#45;amplify/api&#45;graphql&#45;&gt;@aws&#45;amplify/api&#45;rest</title>
<path fill="none" stroke="black" d="M1304.95,-203.96C1331.77,-194.89 1364.46,-183.83 1392.53,-174.34"/>
<polygon fill="black" stroke="black" points="1393.89,-177.57 1402.25,-171.05 1391.65,-170.94 1393.89,-177.57"/>
</g>
<!-- @aws&#45;amplify/api&#45;graphql&#45;&gt;@aws&#45;amplify/data&#45;schema -->
<g id="edge18" class="edge">
<title>@aws&#45;amplify/api&#45;graphql&#45;&gt;@aws&#45;amplify/data&#45;schema</title>
<path fill="none" stroke="black" d="M1334.3,-218.76C1342.79,-218.42 1351.47,-218.08 1360.09,-217.75"/>
<polygon fill="black" stroke="black" points="1360.31,-221.24 1370.16,-217.35 1360.03,-214.25 1360.31,-221.24"/>
</g>
<!-- @aws&#45;amplify/data&#45;schema&#45;types -->
<g id="node15" class="node">
<title>@aws&#45;amplify/data&#45;schema&#45;types</title>
<path fill="none" stroke="black" d="M1773.88,-232C1773.88,-232 1591.02,-232 1591.02,-232 1585.02,-232 1579.02,-226 1579.02,-220 1579.02,-220 1579.02,-208 1579.02,-208 1579.02,-202 1585.02,-196 1591.02,-196 1591.02,-196 1773.88,-196 1773.88,-196 1779.88,-196 1785.88,-202 1785.88,-208 1785.88,-208 1785.88,-220 1785.88,-220 1785.88,-226 1779.88,-232 1773.88,-232"/>
<text text-anchor="middle" x="1682.45" y="-209.8" font-family="Times,serif" font-size="14.00">@aws&#45;amplify/data&#45;schema&#45;types</text>
</g>
<!-- @aws&#45;amplify/data&#45;schema&#45;&gt;@aws&#45;amplify/data&#45;schema&#45;types -->
<g id="edge19" class="edge">
<title>@aws&#45;amplify/data&#45;schema&#45;&gt;@aws&#45;amplify/data&#45;schema&#45;types</title>
<path fill="none" stroke="black" d="M1542.88,-214C1551.32,-214 1559.97,-214 1568.62,-214"/>
<polygon fill="black" stroke="black" points="1568.78,-217.5 1578.78,-214 1568.78,-210.5 1568.78,-217.5"/>
</g>
</g>
</svg>
