<?xml version="1.0" encoding="UTF-8" standalone="no"?>
<!DOCTYPE svg PUBLIC "-//W3C//DTD SVG 1.1//EN"
 "http://www.w3.org/Graphics/SVG/1.1/DTD/svg11.dtd">
<!-- Generated by graphviz version 5.0.0 (20220707.1540)
 -->
<!-- Title: G Pages: 1 -->
<svg width="1386pt" height="430pt"
 viewBox="0.00 0.00 1385.80 430.08" xmlns="http://www.w3.org/2000/svg" xmlns:xlink="http://www.w3.org/1999/xlink">
<g id="graph0" class="graph" transform="scale(1 1) rotate(0) translate(4 426.08)">
<title>G</title>
<polygon fill="white" stroke="transparent" points="-4,4 -4,-426.08 1381.8,-426.08 1381.8,4 -4,4"/>
<!-- root -->
<g id="node1" class="node">
<title>root</title>
<path fill="none" stroke="black" d="M42,-278.08C42,-278.08 12,-278.08 12,-278.08 6,-278.08 0,-272.08 0,-266.08 0,-266.08 0,-254.08 0,-254.08 0,-248.08 6,-242.08 12,-242.08 12,-242.08 42,-242.08 42,-242.08 48,-242.08 54,-248.08 54,-254.08 54,-254.08 54,-266.08 54,-266.08 54,-272.08 48,-278.08 42,-278.08"/>
<text text-anchor="middle" x="27" y="-255.88" font-family="Times,serif" font-size="14.00">root</text>
</g>
<!-- @aws&#45;amplify/analytics -->
<g id="node2" class="node">
<title>@aws&#45;amplify/analytics</title>
<path fill="#ffcccc" stroke="black" d="M903.79,-346.08C903.79,-346.08 775.75,-346.08 775.75,-346.08 769.75,-346.08 763.75,-340.08 763.75,-334.08 763.75,-334.08 763.75,-322.08 763.75,-322.08 763.75,-316.08 769.75,-310.08 775.75,-310.08 775.75,-310.08 903.79,-310.08 903.79,-310.08 909.79,-310.08 915.79,-316.08 915.79,-322.08 915.79,-322.08 915.79,-334.08 915.79,-334.08 915.79,-340.08 909.79,-346.08 903.79,-346.08"/>
<text text-anchor="middle" x="839.77" y="-323.88" font-family="Times,serif" font-size="14.00">@aws&#45;amplify/analytics</text>
</g>
<!-- root&#45;&gt;@aws&#45;amplify/analytics -->
<g id="edge1" class="edge">
<title>root&#45;&gt;@aws&#45;amplify/analytics</title>
<path fill="none" stroke="black" d="M53.12,-278.15C63.97,-285.12 77.13,-292.51 90,-297.08 203.27,-337.32 237.43,-336.08 357.64,-336.08 357.64,-336.08 357.64,-336.08 539.59,-336.08 611.67,-336.08 693.49,-333.73 753.32,-331.58"/>
<polygon fill="black" stroke="black" points="753.61,-335.07 763.48,-331.21 753.35,-328.08 753.61,-335.07"/>
</g>
<!-- @aws&#45;amplify/api&#45;graphql -->
<g id="node3" class="node">
<title>@aws&#45;amplify/api&#45;graphql</title>
<path fill="#ffcccc" stroke="black" d="M1120.3,-422.08C1120.3,-422.08 976.71,-422.08 976.71,-422.08 970.71,-422.08 964.71,-416.08 964.71,-410.08 964.71,-410.08 964.71,-398.08 964.71,-398.08 964.71,-392.08 970.71,-386.08 976.71,-386.08 976.71,-386.08 1120.3,-386.08 1120.3,-386.08 1126.3,-386.08 1132.3,-392.08 1132.3,-398.08 1132.3,-398.08 1132.3,-410.08 1132.3,-410.08 1132.3,-416.08 1126.3,-422.08 1120.3,-422.08"/>
<text text-anchor="middle" x="1048.5" y="-399.88" font-family="Times,serif" font-size="14.00">@aws&#45;amplify/api&#45;graphql</text>
</g>
<!-- root&#45;&gt;@aws&#45;amplify/api&#45;graphql -->
<g id="edge2" class="edge">
<title>root&#45;&gt;@aws&#45;amplify/api&#45;graphql</title>
<path fill="none" stroke="black" d="M33.41,-278.22C41.55,-302.2 59.37,-343.87 90,-365.08 189.29,-433.83 236.87,-412.08 357.64,-412.08 357.64,-412.08 357.64,-412.08 675.41,-412.08 770.44,-412.08 879.1,-409.44 954.36,-407.19"/>
<polygon fill="black" stroke="black" points="954.86,-410.68 964.75,-406.88 954.65,-403.68 954.86,-410.68"/>
</g>
<!-- @aws&#45;amplify/api&#45;rest -->
<g id="node4" class="node">
<title>@aws&#45;amplify/api&#45;rest</title>
<path fill="none" stroke="black" d="M1108.75,-361.08C1108.75,-361.08 988.26,-361.08 988.26,-361.08 982.26,-361.08 976.26,-355.08 976.26,-349.08 976.26,-349.08 976.26,-337.08 976.26,-337.08 976.26,-331.08 982.26,-325.08 988.26,-325.08 988.26,-325.08 1108.75,-325.08 1108.75,-325.08 1114.75,-325.08 1120.75,-331.08 1120.75,-337.08 1120.75,-337.08 1120.75,-349.08 1120.75,-349.08 1120.75,-355.08 1114.75,-361.08 1108.75,-361.08"/>
<text text-anchor="middle" x="1048.5" y="-338.88" font-family="Times,serif" font-size="14.00">@aws&#45;amplify/api&#45;rest</text>
</g>
<!-- root&#45;&gt;@aws&#45;amplify/api&#45;rest -->
<g id="edge3" class="edge">
<title>root&#45;&gt;@aws&#45;amplify/api&#45;rest</title>
<path fill="none" stroke="black" d="M39.12,-278.21C50.01,-294.3 68.13,-317.06 90,-329.08 195.7,-387.19 237.02,-374.08 357.64,-374.08 357.64,-374.08 357.64,-374.08 675.41,-374.08 775.55,-374.08 890.33,-362.79 965.62,-353.84"/>
<polygon fill="black" stroke="black" points="966.46,-357.26 975.97,-352.59 965.62,-350.31 966.46,-357.26"/>
</g>
<!-- @aws&#45;amplify/api -->
<g id="node5" class="node">
<title>@aws&#45;amplify/api</title>
<path fill="none" stroke="black" d="M887.64,-292.08C887.64,-292.08 791.91,-292.08 791.91,-292.08 785.91,-292.08 779.91,-286.08 779.91,-280.08 779.91,-280.08 779.91,-268.08 779.91,-268.08 779.91,-262.08 785.91,-256.08 791.91,-256.08 791.91,-256.08 887.64,-256.08 887.64,-256.08 893.64,-256.08 899.64,-262.08 899.64,-268.08 899.64,-268.08 899.64,-280.08 899.64,-280.08 899.64,-286.08 893.64,-292.08 887.64,-292.08"/>
<text text-anchor="middle" x="839.77" y="-269.88" font-family="Times,serif" font-size="14.00">@aws&#45;amplify/api</text>
</g>
<!-- root&#45;&gt;@aws&#45;amplify/api -->
<g id="edge4" class="edge">
<title>root&#45;&gt;@aws&#45;amplify/api</title>
<path fill="none" stroke="black" d="M54.1,-266.78C65.11,-269.4 78.12,-272.22 90,-274.08 207.98,-292.61 238.21,-298.08 357.64,-298.08 357.64,-298.08 357.64,-298.08 539.59,-298.08 618.65,-298.08 709.09,-289.65 769.64,-282.78"/>
<polygon fill="black" stroke="black" points="770.31,-286.23 779.85,-281.61 769.51,-279.28 770.31,-286.23"/>
</g>
<!-- @aws&#45;amplify/auth -->
<g id="node6" class="node">
<title>@aws&#45;amplify/auth</title>
<path fill="none" stroke="black" d="M891.14,-37.08C891.14,-37.08 788.41,-37.08 788.41,-37.08 782.41,-37.08 776.41,-31.08 776.41,-25.08 776.41,-25.08 776.41,-13.08 776.41,-13.08 776.41,-7.08 782.41,-1.08 788.41,-1.08 788.41,-1.08 891.14,-1.08 891.14,-1.08 897.14,-1.08 903.14,-7.08 903.14,-13.08 903.14,-13.08 903.14,-25.08 903.14,-25.08 903.14,-31.08 897.14,-37.08 891.14,-37.08"/>
<text text-anchor="middle" x="839.77" y="-14.88" font-family="Times,serif" font-size="14.00">@aws&#45;amplify/auth</text>
</g>
<!-- root&#45;&gt;@aws&#45;amplify/auth -->
<g id="edge5" class="edge">
<title>root&#45;&gt;@aws&#45;amplify/auth</title>
<path fill="none" stroke="black" d="M30.58,-241.79C37.66,-194.31 58.97,-69.04 90,-43.08 181.71,33.62 238.08,-16.08 357.64,-16.08 357.64,-16.08 357.64,-16.08 539.59,-16.08 616.93,-16.08 705.5,-17.1 766.09,-17.95"/>
<polygon fill="black" stroke="black" points="766.27,-21.45 776.31,-18.09 766.36,-14.45 766.27,-21.45"/>
</g>
<!-- @aws&#45;amplify/datastore -->
<g id="node7" class="node">
<title>@aws&#45;amplify/datastore</title>
<path fill="#ffcccc" stroke="black" d="M904.56,-235.08C904.56,-235.08 774.98,-235.08 774.98,-235.08 768.98,-235.08 762.98,-229.08 762.98,-223.08 762.98,-223.08 762.98,-211.08 762.98,-211.08 762.98,-205.08 768.98,-199.08 774.98,-199.08 774.98,-199.08 904.56,-199.08 904.56,-199.08 910.56,-199.08 916.56,-205.08 916.56,-211.08 916.56,-211.08 916.56,-223.08 916.56,-223.08 916.56,-229.08 910.56,-235.08 904.56,-235.08"/>
<text text-anchor="middle" x="839.77" y="-212.88" font-family="Times,serif" font-size="14.00">@aws&#45;amplify/datastore</text>
</g>
<!-- root&#45;&gt;@aws&#45;amplify/datastore -->
<g id="edge6" class="edge">
<title>root&#45;&gt;@aws&#45;amplify/datastore</title>
<path fill="none" stroke="black" d="M54.07,-260.08C109.78,-260.08 244.61,-260.08 357.64,-260.08 357.64,-260.08 357.64,-260.08 539.59,-260.08 612.01,-260.08 693.31,-247.58 752.85,-236.06"/>
<polygon fill="black" stroke="black" points="753.83,-239.44 762.96,-234.08 752.48,-232.57 753.83,-239.44"/>
</g>
<!-- @aws&#45;amplify/notifications -->
<g id="node8" class="node">
<title>@aws&#45;amplify/notifications</title>
<path fill="none" stroke="black" d="M914.02,-176.08C914.02,-176.08 765.52,-176.08 765.52,-176.08 759.52,-176.08 753.52,-170.08 753.52,-164.08 753.52,-164.08 753.52,-152.08 753.52,-152.08 753.52,-146.08 759.52,-140.08 765.52,-140.08 765.52,-140.08 914.02,-140.08 914.02,-140.08 920.02,-140.08 926.02,-146.08 926.02,-152.08 926.02,-152.08 926.02,-164.08 926.02,-164.08 926.02,-170.08 920.02,-176.08 914.02,-176.08"/>
<text text-anchor="middle" x="839.77" y="-153.88" font-family="Times,serif" font-size="14.00">@aws&#45;amplify/notifications</text>
</g>
<!-- root&#45;&gt;@aws&#45;amplify/notifications -->
<g id="edge7" class="edge">
<title>root&#45;&gt;@aws&#45;amplify/notifications</title>
<path fill="none" stroke="black" d="M35.48,-242.05C45.07,-221.16 63.65,-187.19 90,-168.08 190.12,-95.51 233.98,-92.08 357.64,-92.08 357.64,-92.08 357.64,-92.08 539.59,-92.08 624.24,-92.08 719.26,-117.59 779.05,-136.89"/>
<polygon fill="black" stroke="black" points="778.1,-140.26 788.7,-140.05 780.28,-133.61 778.1,-140.26"/>
</g>
<!-- @aws&#45;amplify/storage -->
<g id="node9" class="node">
<title>@aws&#45;amplify/storage</title>
<path fill="none" stroke="black" d="M899.46,-112.08C899.46,-112.08 780.08,-112.08 780.08,-112.08 774.08,-112.08 768.08,-106.08 768.08,-100.08 768.08,-100.08 768.08,-88.08 768.08,-88.08 768.08,-82.08 774.08,-76.08 780.08,-76.08 780.08,-76.08 899.46,-76.08 899.46,-76.08 905.46,-76.08 911.46,-82.08 911.46,-88.08 911.46,-88.08 911.46,-100.08 911.46,-100.08 911.46,-106.08 905.46,-112.08 899.46,-112.08"/>
<text text-anchor="middle" x="839.77" y="-89.88" font-family="Times,serif" font-size="14.00">@aws&#45;amplify/storage</text>
</g>
<!-- root&#45;&gt;@aws&#45;amplify/storage -->
<g id="edge8" class="edge">
<title>root&#45;&gt;@aws&#45;amplify/storage</title>
<path fill="none" stroke="black" d="M29.06,-242.05C32.13,-207.57 44.02,-132.39 90,-95.08 183.44,-19.26 237.3,-54.08 357.64,-54.08 357.64,-54.08 357.64,-54.08 539.59,-54.08 614.02,-54.08 697.95,-66.39 757.94,-77.36"/>
<polygon fill="black" stroke="black" points="757.63,-80.86 768.1,-79.24 758.91,-73.98 757.63,-80.86"/>
</g>
<!-- @aws&#45;amplify/ui&#45;react -->
<g id="node10" class="node">
<title>@aws&#45;amplify/ui&#45;react</title>
<path fill="none" stroke="black" d="M223.26,-213.08C223.26,-213.08 102.25,-213.08 102.25,-213.08 96.25,-213.08 90.25,-207.08 90.25,-201.08 90.25,-201.08 90.25,-189.08 90.25,-189.08 90.25,-183.08 96.25,-177.08 102.25,-177.08 102.25,-177.08 223.26,-177.08 223.26,-177.08 229.26,-177.08 235.26,-183.08 235.26,-189.08 235.26,-189.08 235.26,-201.08 235.26,-201.08 235.26,-207.08 229.26,-213.08 223.26,-213.08"/>
<text text-anchor="middle" x="162.75" y="-190.88" font-family="Times,serif" font-size="14.00">@aws&#45;amplify/ui&#45;react</text>
</g>
<!-- root&#45;&gt;@aws&#45;amplify/ui&#45;react -->
<g id="edge9" class="edge">
<title>root&#45;&gt;@aws&#45;amplify/ui&#45;react</title>
<path fill="none" stroke="black" d="M54.11,-247.39C71.51,-238.94 94.87,-227.58 115.39,-217.61"/>
<polygon fill="black" stroke="black" points="117.11,-220.67 124.58,-213.15 114.05,-214.37 117.11,-220.67"/>
</g>
<!-- @aws&#45;amplify/api&#45;&gt;@aws&#45;amplify/api&#45;graphql -->
<g id="edge10" class="edge">
<title>@aws&#45;amplify/api&#45;&gt;@aws&#45;amplify/api&#45;graphql</title>
<path fill="none" stroke="black" d="M899.94,-286.07C909.38,-289.8 918.52,-294.69 926.14,-301.08 952.64,-323.31 936.47,-346.9 962.14,-370.08 966.62,-374.12 971.63,-377.71 976.93,-380.89"/>
<polygon fill="black" stroke="black" points="975.61,-384.16 986.07,-385.87 978.96,-378.01 975.61,-384.16"/>
</g>
<!-- @aws&#45;amplify/api&#45;&gt;@aws&#45;amplify/api&#45;rest -->
<g id="edge11" class="edge">
<title>@aws&#45;amplify/api&#45;&gt;@aws&#45;amplify/api&#45;rest</title>
<path fill="none" stroke="black" d="M898.7,-292.17C907.9,-295.11 917.29,-298.15 926.14,-301.08 945.88,-307.62 967.34,-314.96 986.65,-321.66"/>
<polygon fill="black" stroke="black" points="985.64,-325.02 996.23,-325 987.94,-318.41 985.64,-325.02"/>
</g>
<!-- @aws&#45;amplify/data&#45;schema -->
<g id="node11" class="node">
<title>@aws&#45;amplify/data&#45;schema</title>
<path fill="none" stroke="black" d="M1122.73,-292.08C1122.73,-292.08 974.28,-292.08 974.28,-292.08 968.28,-292.08 962.28,-286.08 962.28,-280.08 962.28,-280.08 962.28,-268.08 962.28,-268.08 962.28,-262.08 968.28,-256.08 974.28,-256.08 974.28,-256.08 1122.73,-256.08 1122.73,-256.08 1128.73,-256.08 1134.73,-262.08 1134.73,-268.08 1134.73,-268.08 1134.73,-280.08 1134.73,-280.08 1134.73,-286.08 1128.73,-292.08 1122.73,-292.08"/>
<text text-anchor="middle" x="1048.5" y="-269.88" font-family="Times,serif" font-size="14.00">@aws&#45;amplify/data&#45;schema</text>
</g>
<!-- @aws&#45;amplify/api&#45;&gt;@aws&#45;amplify/data&#45;schema -->
<g id="edge12" class="edge">
<title>@aws&#45;amplify/api&#45;&gt;@aws&#45;amplify/data&#45;schema</title>
<path fill="none" stroke="black" d="M899.74,-274.08C916,-274.08 934.07,-274.08 951.84,-274.08"/>
<polygon fill="black" stroke="black" points="952.25,-277.58 962.25,-274.08 952.25,-270.58 952.25,-277.58"/>
</g>
<!-- @aws&#45;amplify/react&#45;native -->
<g id="node13" class="node">
<title>@aws&#45;amplify/react&#45;native</title>
<path fill="#ffcccc" stroke="black" d="M1120.83,-37.08C1120.83,-37.08 976.18,-37.08 976.18,-37.08 970.18,-37.08 964.18,-31.08 964.18,-25.08 964.18,-25.08 964.18,-13.08 964.18,-13.08 964.18,-7.08 970.18,-1.08 976.18,-1.08 976.18,-1.08 1120.83,-1.08 1120.83,-1.08 1126.83,-1.08 1132.83,-7.08 1132.83,-13.08 1132.83,-13.08 1132.83,-25.08 1132.83,-25.08 1132.83,-31.08 1126.83,-37.08 1120.83,-37.08"/>
<text text-anchor="middle" x="1048.5" y="-14.88" font-family="Times,serif" font-size="14.00">@aws&#45;amplify/react&#45;native</text>
</g>
<!-- @aws&#45;amplify/auth&#45;&gt;@aws&#45;amplify/react&#45;native -->
<g id="edge14" class="edge">
<title>@aws&#45;amplify/auth&#45;&gt;@aws&#45;amplify/react&#45;native</title>
<path fill="none" stroke="black" d="M903.36,-19.08C919.35,-19.08 936.9,-19.08 954.08,-19.08"/>
<polygon fill="black" stroke="black" points="954.13,-22.58 964.13,-19.08 954.13,-15.58 954.13,-22.58"/>
</g>
<!-- @aws&#45;amplify/ui&#45;react&#45;core -->
<g id="node14" class="node">
<title>@aws&#45;amplify/ui&#45;react&#45;core</title>
<path fill="none" stroke="black" d="M433.9,-194.08C433.9,-194.08 283.38,-194.08 283.38,-194.08 277.38,-194.08 271.38,-188.08 271.38,-182.08 271.38,-182.08 271.38,-170.08 271.38,-170.08 271.38,-164.08 277.38,-158.08 283.38,-158.08 283.38,-158.08 433.9,-158.08 433.9,-158.08 439.9,-158.08 445.9,-164.08 445.9,-170.08 445.9,-170.08 445.9,-182.08 445.9,-182.08 445.9,-188.08 439.9,-194.08 433.9,-194.08"/>
<text text-anchor="middle" x="358.64" y="-171.88" font-family="Times,serif" font-size="14.00">@aws&#45;amplify/ui&#45;react&#45;core</text>
</g>
<!-- @aws&#45;amplify/ui&#45;react&#45;&gt;@aws&#45;amplify/ui&#45;react&#45;core -->
<g id="edge15" class="edge">
<title>@aws&#45;amplify/ui&#45;react&#45;&gt;@aws&#45;amplify/ui&#45;react&#45;core</title>
<path fill="none" stroke="black" d="M235.4,-188.06C243.77,-187.24 252.42,-186.39 261.06,-185.55"/>
<polygon fill="black" stroke="black" points="261.57,-189.01 271.18,-184.55 260.89,-182.05 261.57,-189.01"/>
</g>
<!-- @aws&#45;amplify/ui -->
<g id="node15" class="node">
<title>@aws&#45;amplify/ui</title>
<path fill="none" stroke="black" d="M583.24,-232.08C583.24,-232.08 493.94,-232.08 493.94,-232.08 487.94,-232.08 481.94,-226.08 481.94,-220.08 481.94,-220.08 481.94,-208.08 481.94,-208.08 481.94,-202.08 487.94,-196.08 493.94,-196.08 493.94,-196.08 583.24,-196.08 583.24,-196.08 589.24,-196.08 595.24,-202.08 595.24,-208.08 595.24,-208.08 595.24,-220.08 595.24,-220.08 595.24,-226.08 589.24,-232.08 583.24,-232.08"/>
<text text-anchor="middle" x="538.59" y="-209.88" font-family="Times,serif" font-size="14.00">@aws&#45;amplify/ui</text>
</g>
<!-- @aws&#45;amplify/ui&#45;react&#45;&gt;@aws&#45;amplify/ui -->
<g id="edge16" class="edge">
<title>@aws&#45;amplify/ui&#45;react&#45;&gt;@aws&#45;amplify/ui</title>
<path fill="none" stroke="black" d="M235.31,-200.73C247.39,-201.58 259.8,-202.41 271.51,-203.08 339.7,-207.02 417.79,-210.08 471.66,-211.96"/>
<polygon fill="black" stroke="black" points="471.64,-215.46 481.76,-212.31 471.89,-208.46 471.64,-215.46"/>
</g>
<!-- aws&#45;amplify -->
<g id="node16" class="node">
<title>aws&#45;amplify</title>
<path fill="none" stroke="black" d="M705.39,-186.08C705.39,-186.08 643.43,-186.08 643.43,-186.08 637.43,-186.08 631.43,-180.08 631.43,-174.08 631.43,-174.08 631.43,-162.08 631.43,-162.08 631.43,-156.08 637.43,-150.08 643.43,-150.08 643.43,-150.08 705.39,-150.08 705.39,-150.08 711.39,-150.08 717.39,-156.08 717.39,-162.08 717.39,-162.08 717.39,-174.08 717.39,-174.08 717.39,-180.08 711.39,-186.08 705.39,-186.08"/>
<text text-anchor="middle" x="674.41" y="-163.88" font-family="Times,serif" font-size="14.00">aws&#45;amplify</text>
</g>
<!-- @aws&#45;amplify/ui&#45;react&#45;&gt;aws&#45;amplify -->
<g id="edge17" class="edge">
<title>@aws&#45;amplify/ui&#45;react&#45;&gt;aws&#45;amplify</title>
<path fill="none" stroke="black" d="M196.59,-176.95C217.38,-166.52 245.2,-154.46 271.51,-149.08 394.96,-123.83 544,-143.6 621.26,-157.48"/>
<polygon fill="black" stroke="black" points="620.76,-160.95 631.22,-159.31 622.02,-154.06 620.76,-160.95"/>
</g>
<!-- @aws&#45;amplify/data&#45;schema&#45;types -->
<g id="node12" class="node">
<title>@aws&#45;amplify/data&#45;schema&#45;types</title>
<path fill="none" stroke="black" d="M1365.77,-292.08C1365.77,-292.08 1182.9,-292.08 1182.9,-292.08 1176.9,-292.08 1170.9,-286.08 1170.9,-280.08 1170.9,-280.08 1170.9,-268.08 1170.9,-268.08 1170.9,-262.08 1176.9,-256.08 1182.9,-256.08 1182.9,-256.08 1365.77,-256.08 1365.77,-256.08 1371.77,-256.08 1377.77,-262.08 1377.77,-268.08 1377.77,-268.08 1377.77,-280.08 1377.77,-280.08 1377.77,-286.08 1371.77,-292.08 1365.77,-292.08"/>
<text text-anchor="middle" x="1274.33" y="-269.88" font-family="Times,serif" font-size="14.00">@aws&#45;amplify/data&#45;schema&#45;types</text>
</g>
<!-- @aws&#45;amplify/data&#45;schema&#45;&gt;@aws&#45;amplify/data&#45;schema&#45;types -->
<g id="edge13" class="edge">
<title>@aws&#45;amplify/data&#45;schema&#45;&gt;@aws&#45;amplify/data&#45;schema&#45;types</title>
<path fill="none" stroke="black" d="M1134.76,-274.08C1143.2,-274.08 1151.85,-274.08 1160.51,-274.08"/>
<polygon fill="black" stroke="black" points="1160.66,-277.58 1170.66,-274.08 1160.66,-270.58 1160.66,-277.58"/>
</g>
<!-- @aws&#45;amplify/ui&#45;react&#45;core&#45;&gt;@aws&#45;amplify/ui -->
<g id="edge18" class="edge">
<title>@aws&#45;amplify/ui&#45;react&#45;core&#45;&gt;@aws&#45;amplify/ui</title>
<path fill="none" stroke="black" d="M444.18,-194.14C453.44,-196.11 462.75,-198.1 471.73,-200.02"/>
<polygon fill="black" stroke="black" points="471.19,-203.48 481.7,-202.15 472.66,-196.64 471.19,-203.48"/>
</g>
<!-- @aws&#45;amplify/ui&#45;react&#45;core&#45;&gt;aws&#45;amplify -->
<g id="edge19" class="edge">
<title>@aws&#45;amplify/ui&#45;react&#45;core&#45;&gt;aws&#45;amplify</title>
<path fill="none" stroke="black" d="M445.79,-173.89C501.91,-172.45 573.29,-170.63 621.02,-169.42"/>
<polygon fill="black" stroke="black" points="621.22,-172.91 631.12,-169.16 621.04,-165.92 621.22,-172.91"/>
</g>
<!-- @aws&#45;amplify/ui&#45;&gt;aws&#45;amplify -->
<g id="edge20" class="edge">
<title>@aws&#45;amplify/ui&#45;&gt;aws&#45;amplify</title>
<path fill="none" stroke="black" d="M592.09,-196.03C601.87,-192.67 612.08,-189.16 621.82,-185.81"/>
<polygon fill="black" stroke="black" points="623.06,-189.09 631.38,-182.53 620.79,-182.47 623.06,-189.09"/>
</g>
<!-- aws&#45;amplify&#45;&gt;@aws&#45;amplify/analytics -->
<g id="edge21" class="edge">
<title>aws&#45;amplify&#45;&gt;@aws&#45;amplify/analytics</title>
<path fill="none" stroke="black" d="M681.31,-186.44C691.45,-215.1 714.9,-270.37 753.4,-301.08 754.99,-302.35 756.65,-303.57 758.35,-304.72"/>
<polygon fill="black" stroke="black" points="756.88,-307.92 767.26,-310.04 760.47,-301.91 756.88,-307.92"/>
</g>
<!-- aws&#45;amplify&#45;&gt;@aws&#45;amplify/api -->
<g id="edge22" class="edge">
<title>aws&#45;amplify&#45;&gt;@aws&#45;amplify/api</title>
<path fill="none" stroke="black" d="M690.06,-186.37C704.55,-203.4 728.17,-228.44 753.4,-244.08 758.74,-247.4 764.5,-250.41 770.42,-253.13"/>
<polygon fill="black" stroke="black" points="769.24,-256.43 779.8,-257.17 772,-250 769.24,-256.43"/>
</g>
<!-- aws&#45;amplify&#45;&gt;@aws&#45;amplify/auth -->
<g id="edge23" class="edge">
<title>aws&#45;amplify&#45;&gt;@aws&#45;amplify/auth</title>
<path fill="none" stroke="black" d="M686.25,-149.88C699.86,-128.17 724.9,-91.71 753.4,-67.08 764.27,-57.69 777.26,-49.27 789.79,-42.2"/>
<polygon fill="black" stroke="black" points="791.69,-45.15 798.8,-37.3 788.34,-39 791.69,-45.15"/>
</g>
<!-- aws&#45;amplify&#45;&gt;@aws&#45;amplify/datastore -->
<g id="edge24" class="edge">
<title>aws&#45;amplify&#45;&gt;@aws&#45;amplify/datastore</title>
<path fill="none" stroke="black" d="M717.48,-180.7C733.19,-185.41 751.49,-190.9 769.03,-196.16"/>
<polygon fill="black" stroke="black" points="768.09,-199.54 778.68,-199.06 770.1,-192.83 768.09,-199.54"/>
</g>
<!-- aws&#45;amplify&#45;&gt;@aws&#45;amplify/notifications -->
<g id="edge25" class="edge">
<title>aws&#45;amplify&#45;&gt;@aws&#45;amplify/notifications</title>
<path fill="none" stroke="black" d="M717.48,-165.51C725.51,-165.01 734.22,-164.48 743.17,-163.93"/>
<polygon fill="black" stroke="black" points="743.57,-167.42 753.33,-163.31 743.14,-160.43 743.57,-167.42"/>
</g>
<!-- aws&#45;amplify&#45;&gt;@aws&#45;amplify/storage -->
<g id="edge26" class="edge">
<title>aws&#45;amplify&#45;&gt;@aws&#45;amplify/storage</title>
<path fill="none" stroke="black" d="M712.97,-149.94C725.76,-143.86 740.16,-137.09 753.4,-131.08 764.09,-126.23 775.6,-121.15 786.59,-116.36"/>
<polygon fill="black" stroke="black" points="788.31,-119.43 796.09,-112.24 785.52,-113.01 788.31,-119.43"/>
</g>
</g>
</svg>
