<?xml version="1.0" encoding="UTF-8" standalone="no"?>
<!DOCTYPE svg PUBLIC "-//W3C//DTD SVG 1.1//EN"
 "http://www.w3.org/Graphics/SVG/1.1/DTD/svg11.dtd">
<!-- Generated by graphviz version 5.0.0 (20220707.1540)
 -->
<!-- Title: G Pages: 1 -->
<svg width="1690pt" height="515pt"
 viewBox="0.00 0.00 1689.92 514.93" xmlns="http://www.w3.org/2000/svg" xmlns:xlink="http://www.w3.org/1999/xlink">
<g id="graph0" class="graph" transform="scale(1 1) rotate(0) translate(4 510.93)">
<title>G</title>
<polygon fill="white" stroke="transparent" points="-4,4 -4,-510.93 1685.92,-510.93 1685.92,4 -4,4"/>
<!-- @aws&#45;amplify/analytics -->
<g id="node1" class="node">
<title>@aws&#45;amplify/analytics</title>
<path fill="none" stroke="black" d="M1207.91,-346C1207.91,-346 1079.87,-346 1079.87,-346 1073.87,-346 1067.87,-340 1067.87,-334 1067.87,-334 1067.87,-322 1067.87,-322 1067.87,-316 1073.87,-310 1079.87,-310 1079.87,-310 1207.91,-310 1207.91,-310 1213.91,-310 1219.91,-316 1219.91,-322 1219.91,-322 1219.91,-334 1219.91,-334 1219.91,-340 1213.91,-346 1207.91,-346"/>
<text text-anchor="middle" x="1143.89" y="-323.8" font-family="Times,serif" font-size="14.00">@aws&#45;amplify/analytics</text>
</g>
<!-- @aws&#45;amplify/core -->
<g id="node2" class="node">
<title>@aws&#45;amplify/core</title>
<path fill="none" stroke="black" d="M1629.8,-300C1629.8,-300 1527.1,-300 1527.1,-300 1521.1,-300 1515.1,-294 1515.1,-288 1515.1,-288 1515.1,-276 1515.1,-276 1515.1,-270 1521.1,-264 1527.1,-264 1527.1,-264 1629.8,-264 1629.8,-264 1635.8,-264 1641.8,-270 1641.8,-276 1641.8,-276 1641.8,-288 1641.8,-288 1641.8,-294 1635.8,-300 1629.8,-300"/>
<text text-anchor="middle" x="1578.45" y="-277.8" font-family="Times,serif" font-size="14.00">@aws&#45;amplify/core</text>
</g>
<!-- @aws&#45;amplify/analytics&#45;&gt;@aws&#45;amplify/core -->
<g id="edge1" class="edge">
<title>@aws&#45;amplify/analytics&#45;&gt;@aws&#45;amplify/core</title>
<path fill="none" stroke="black" d="M1220.23,-319.99C1300.15,-311.49 1425.55,-298.15 1504.53,-289.75"/>
<polygon fill="black" stroke="black" points="1505.31,-293.19 1514.88,-288.65 1504.57,-286.23 1505.31,-293.19"/>
</g>
<!-- @aws&#45;amplify/api -->
<g id="node3" class="node">
<title>@aws&#45;amplify/api</title>
<path fill="none" stroke="black" d="M984.97,-128C984.97,-128 889.24,-128 889.24,-128 883.24,-128 877.24,-122 877.24,-116 877.24,-116 877.24,-104 877.24,-104 877.24,-98 883.24,-92 889.24,-92 889.24,-92 984.97,-92 984.97,-92 990.97,-92 996.97,-98 996.97,-104 996.97,-104 996.97,-116 996.97,-116 996.97,-122 990.97,-128 984.97,-128"/>
<text text-anchor="middle" x="937.1" y="-105.8" font-family="Times,serif" font-size="14.00">@aws&#45;amplify/api</text>
</g>
<!-- @aws&#45;amplify/api&#45;&gt;@aws&#45;amplify/core -->
<g id="edge4" class="edge">
<title>@aws&#45;amplify/api&#45;&gt;@aws&#45;amplify/core</title>
<path fill="none" stroke="black" d="M997.08,-117.46C1125.11,-133.75 1418.68,-171.73 1438.98,-180 1482.84,-197.87 1525.5,-232.74 1551.61,-256.7"/>
<polygon fill="black" stroke="black" points="1549.47,-259.48 1559.17,-263.75 1554.25,-254.37 1549.47,-259.48"/>
</g>
<!-- @aws&#45;amplify/api&#45;graphql -->
<g id="node4" class="node">
<title>@aws&#45;amplify/api&#45;graphql</title>
<path fill="none" stroke="black" d="M1215.68,-82C1215.68,-82 1072.09,-82 1072.09,-82 1066.09,-82 1060.09,-76 1060.09,-70 1060.09,-70 1060.09,-58 1060.09,-58 1060.09,-52 1066.09,-46 1072.09,-46 1072.09,-46 1215.68,-46 1215.68,-46 1221.68,-46 1227.68,-52 1227.68,-58 1227.68,-58 1227.68,-70 1227.68,-70 1227.68,-76 1221.68,-82 1215.68,-82"/>
<text text-anchor="middle" x="1143.89" y="-59.8" font-family="Times,serif" font-size="14.00">@aws&#45;amplify/api&#45;graphql</text>
</g>
<!-- @aws&#45;amplify/api&#45;&gt;@aws&#45;amplify/api&#45;graphql -->
<g id="edge2" class="edge">
<title>@aws&#45;amplify/api&#45;&gt;@aws&#45;amplify/api&#45;graphql</title>
<path fill="none" stroke="black" d="M997.06,-96.76C1014.47,-92.85 1033.93,-88.47 1052.82,-84.23"/>
<polygon fill="black" stroke="black" points="1053.65,-87.63 1062.64,-82.03 1052.12,-80.8 1053.65,-87.63"/>
</g>
<!-- @aws&#45;amplify/api&#45;rest -->
<g id="node5" class="node">
<title>@aws&#45;amplify/api&#45;rest</title>
<path fill="none" stroke="black" d="M1412.86,-128C1412.86,-128 1292.38,-128 1292.38,-128 1286.38,-128 1280.38,-122 1280.38,-116 1280.38,-116 1280.38,-104 1280.38,-104 1280.38,-98 1286.38,-92 1292.38,-92 1292.38,-92 1412.86,-92 1412.86,-92 1418.86,-92 1424.86,-98 1424.86,-104 1424.86,-104 1424.86,-116 1424.86,-116 1424.86,-122 1418.86,-128 1412.86,-128"/>
<text text-anchor="middle" x="1352.62" y="-105.8" font-family="Times,serif" font-size="14.00">@aws&#45;amplify/api&#45;rest</text>
</g>
<!-- @aws&#45;amplify/api&#45;&gt;@aws&#45;amplify/api&#45;rest -->
<g id="edge3" class="edge">
<title>@aws&#45;amplify/api&#45;&gt;@aws&#45;amplify/api&#45;rest</title>
<path fill="none" stroke="black" d="M997.35,-110C1068.99,-110 1189.92,-110 1270.26,-110"/>
<polygon fill="black" stroke="black" points="1270.34,-113.5 1280.34,-110 1270.34,-106.5 1270.34,-113.5"/>
</g>
<!-- @aws&#45;amplify/data&#45;schema -->
<g id="node6" class="node">
<title>@aws&#45;amplify/data&#45;schema</title>
<path fill="none" stroke="black" d="M1426.84,-36C1426.84,-36 1278.4,-36 1278.4,-36 1272.4,-36 1266.4,-30 1266.4,-24 1266.4,-24 1266.4,-12 1266.4,-12 1266.4,-6 1272.4,0 1278.4,0 1278.4,0 1426.84,0 1426.84,0 1432.84,0 1438.84,-6 1438.84,-12 1438.84,-12 1438.84,-24 1438.84,-24 1438.84,-30 1432.84,-36 1426.84,-36"/>
<text text-anchor="middle" x="1352.62" y="-13.8" font-family="Times,serif" font-size="14.00">@aws&#45;amplify/data&#45;schema</text>
</g>
<!-- @aws&#45;amplify/api&#45;&gt;@aws&#45;amplify/data&#45;schema -->
<g id="edge5" class="edge">
<title>@aws&#45;amplify/api&#45;&gt;@aws&#45;amplify/data&#45;schema</title>
<path fill="none" stroke="black" d="M960.25,-91.85C983.07,-74.32 1020.45,-48.73 1057.51,-37 1121.59,-16.71 1197.35,-12.24 1255.93,-12.7"/>
<polygon fill="black" stroke="black" points="1256.24,-16.2 1266.29,-12.83 1256.33,-9.2 1256.24,-16.2"/>
</g>
<!-- @aws&#45;amplify/api&#45;graphql&#45;&gt;@aws&#45;amplify/core -->
<g id="edge7" class="edge">
<title>@aws&#45;amplify/api&#45;graphql&#45;&gt;@aws&#45;amplify/core</title>
<path fill="none" stroke="black" d="M1227.66,-50.94C1289.78,-45.31 1374.81,-46.79 1438.98,-83 1507.31,-121.55 1549.55,-209.47 1567.46,-254.42"/>
<polygon fill="black" stroke="black" points="1564.24,-255.78 1571.11,-263.84 1570.76,-253.25 1564.24,-255.78"/>
</g>
<!-- @aws&#45;amplify/api&#45;graphql&#45;&gt;@aws&#45;amplify/api&#45;rest -->
<g id="edge6" class="edge">
<title>@aws&#45;amplify/api&#45;graphql&#45;&gt;@aws&#45;amplify/api&#45;rest</title>
<path fill="none" stroke="black" d="M1226,-82.05C1240.52,-85.28 1255.66,-88.65 1270.19,-91.88"/>
<polygon fill="black" stroke="black" points="1269.62,-95.34 1280.14,-94.09 1271.14,-88.51 1269.62,-95.34"/>
</g>
<!-- @aws&#45;amplify/api&#45;graphql&#45;&gt;@aws&#45;amplify/data&#45;schema -->
<g id="edge8" class="edge">
<title>@aws&#45;amplify/api&#45;graphql&#45;&gt;@aws&#45;amplify/data&#45;schema</title>
<path fill="none" stroke="black" d="M1226,-45.95C1237.29,-43.44 1248.95,-40.85 1260.4,-38.3"/>
<polygon fill="black" stroke="black" points="1261.4,-41.66 1270.4,-36.07 1259.88,-34.83 1261.4,-41.66"/>
</g>
<!-- @aws&#45;amplify/api&#45;rest&#45;&gt;@aws&#45;amplify/core -->
<g id="edge9" class="edge">
<title>@aws&#45;amplify/api&#45;rest&#45;&gt;@aws&#45;amplify/core</title>
<path fill="none" stroke="black" d="M1412.2,-128.09C1421.49,-132.04 1430.75,-136.67 1438.98,-142 1487.5,-173.43 1532.34,-224.42 1557.19,-255.42"/>
<polygon fill="black" stroke="black" points="1554.71,-257.93 1563.65,-263.6 1560.2,-253.59 1554.71,-257.93"/>
</g>
<!-- @aws&#45;amplify/data&#45;schema&#45;types -->
<g id="node9" class="node">
<title>@aws&#45;amplify/data&#45;schema&#45;types</title>
<path fill="none" stroke="black" d="M1669.88,-36C1669.88,-36 1487.02,-36 1487.02,-36 1481.02,-36 1475.02,-30 1475.02,-24 1475.02,-24 1475.02,-12 1475.02,-12 1475.02,-6 1481.02,0 1487.02,0 1487.02,0 1669.88,0 1669.88,0 1675.88,0 1681.88,-6 1681.88,-12 1681.88,-12 1681.88,-24 1681.88,-24 1681.88,-30 1675.88,-36 1669.88,-36"/>
<text text-anchor="middle" x="1578.45" y="-13.8" font-family="Times,serif" font-size="14.00">@aws&#45;amplify/data&#45;schema&#45;types</text>
</g>
<!-- @aws&#45;amplify/data&#45;schema&#45;&gt;@aws&#45;amplify/data&#45;schema&#45;types -->
<g id="edge12" class="edge">
<title>@aws&#45;amplify/data&#45;schema&#45;&gt;@aws&#45;amplify/data&#45;schema&#45;types</title>
<path fill="none" stroke="black" d="M1438.88,-18C1447.32,-18 1455.97,-18 1464.62,-18"/>
<polygon fill="black" stroke="black" points="1464.78,-21.5 1474.78,-18 1464.78,-14.5 1464.78,-21.5"/>
</g>
<!-- @aws&#45;amplify/auth -->
<g id="node7" class="node">
<title>@aws&#45;amplify/auth</title>
<path fill="none" stroke="black" d="M791.41,-258C791.41,-258 688.68,-258 688.68,-258 682.68,-258 676.68,-252 676.68,-246 676.68,-246 676.68,-234 676.68,-234 676.68,-228 682.68,-222 688.68,-222 688.68,-222 791.41,-222 791.41,-222 797.41,-222 803.41,-228 803.41,-234 803.41,-234 803.41,-246 803.41,-246 803.41,-252 797.41,-258 791.41,-258"/>
<text text-anchor="middle" x="740.04" y="-235.8" font-family="Times,serif" font-size="14.00">@aws&#45;amplify/auth</text>
</g>
<!-- @aws&#45;amplify/auth&#45;&gt;@aws&#45;amplify/core -->
<g id="edge10" class="edge">
<title>@aws&#45;amplify/auth&#45;&gt;@aws&#45;amplify/core</title>
<path fill="none" stroke="black" d="M803.68,-241.24C925.94,-243.94 1204.91,-251.49 1438.98,-268 1460.32,-269.51 1483.45,-271.64 1504.59,-273.8"/>
<polygon fill="black" stroke="black" points="1504.49,-277.3 1514.79,-274.85 1505.21,-270.34 1504.49,-277.3"/>
</g>
<!-- @aws&#45;amplify/react&#45;native -->
<g id="node8" class="node">
<title>@aws&#45;amplify/react&#45;native</title>
<path fill="none" stroke="black" d="M1009.43,-220C1009.43,-220 864.78,-220 864.78,-220 858.78,-220 852.78,-214 852.78,-208 852.78,-208 852.78,-196 852.78,-196 852.78,-190 858.78,-184 864.78,-184 864.78,-184 1009.43,-184 1009.43,-184 1015.43,-184 1021.43,-190 1021.43,-196 1021.43,-196 1021.43,-208 1021.43,-208 1021.43,-214 1015.43,-220 1009.43,-220"/>
<text text-anchor="middle" x="937.1" y="-197.8" font-family="Times,serif" font-size="14.00">@aws&#45;amplify/react&#45;native</text>
</g>
<!-- @aws&#45;amplify/auth&#45;&gt;@aws&#45;amplify/react&#45;native -->
<g id="edge11" class="edge">
<title>@aws&#45;amplify/auth&#45;&gt;@aws&#45;amplify/react&#45;native</title>
<path fill="none" stroke="black" d="M803.57,-227.82C816,-225.4 829.3,-222.81 842.51,-220.23"/>
<polygon fill="black" stroke="black" points="843.43,-223.62 852.58,-218.27 842.1,-216.75 843.43,-223.62"/>
</g>
<!-- @aws&#45;amplify/datastore -->
<g id="node10" class="node">
<title>@aws&#45;amplify/datastore</title>
<path fill="none" stroke="black" d="M804.84,-138C804.84,-138 675.25,-138 675.25,-138 669.25,-138 663.25,-132 663.25,-126 663.25,-126 663.25,-114 663.25,-114 663.25,-108 669.25,-102 675.25,-102 675.25,-102 804.84,-102 804.84,-102 810.84,-102 816.84,-108 816.84,-114 816.84,-114 816.84,-126 816.84,-126 816.84,-132 810.84,-138 804.84,-138"/>
<text text-anchor="middle" x="740.04" y="-115.8" font-family="Times,serif" font-size="14.00">@aws&#45;amplify/datastore</text>
</g>
<!-- @aws&#45;amplify/datastore&#45;&gt;@aws&#45;amplify/core -->
<g id="edge15" class="edge">
<title>@aws&#45;amplify/datastore&#45;&gt;@aws&#45;amplify/core</title>
<path fill="none" stroke="black" d="M816.74,-134.28C944.9,-158.52 1212.76,-209.41 1438.98,-254 1460.48,-258.24 1483.84,-262.93 1505.14,-267.24"/>
<polygon fill="black" stroke="black" points="1504.6,-270.7 1515.1,-269.26 1505.99,-263.84 1504.6,-270.7"/>
</g>
<!-- @aws&#45;amplify/datastore&#45;&gt;@aws&#45;amplify/api -->
<g id="edge13" class="edge">
<title>@aws&#45;amplify/datastore&#45;&gt;@aws&#45;amplify/api</title>
<path fill="none" stroke="black" d="M816.74,-116.12C833.16,-115.28 850.46,-114.39 866.64,-113.56"/>
<polygon fill="black" stroke="black" points="867.27,-117.03 877.08,-113.03 866.91,-110.04 867.27,-117.03"/>
</g>
<!-- @aws&#45;amplify/datastore&#45;&gt;@aws&#45;amplify/api&#45;graphql -->
<g id="edge14" class="edge">
<title>@aws&#45;amplify/datastore&#45;&gt;@aws&#45;amplify/api&#45;graphql</title>
<path fill="none" stroke="black" d="M786.78,-101.92C806.71,-94.81 830.54,-87.32 852.69,-83 917.9,-70.28 992.76,-65.61 1050.1,-64.09"/>
<polygon fill="black" stroke="black" points="1050.33,-67.58 1060.24,-63.84 1050.16,-60.58 1050.33,-67.58"/>
</g>
<!-- @aws&#45;amplify/notifications -->
<g id="node11" class="node">
<title>@aws&#45;amplify/notifications</title>
<path fill="none" stroke="black" d="M1218.14,-438C1218.14,-438 1069.64,-438 1069.64,-438 1063.64,-438 1057.64,-432 1057.64,-426 1057.64,-426 1057.64,-414 1057.64,-414 1057.64,-408 1063.64,-402 1069.64,-402 1069.64,-402 1218.14,-402 1218.14,-402 1224.14,-402 1230.14,-408 1230.14,-414 1230.14,-414 1230.14,-426 1230.14,-426 1230.14,-432 1224.14,-438 1218.14,-438"/>
<text text-anchor="middle" x="1143.89" y="-415.8" font-family="Times,serif" font-size="14.00">@aws&#45;amplify/notifications</text>
</g>
<!-- @aws&#45;amplify/notifications&#45;&gt;@aws&#45;amplify/core -->
<g id="edge16" class="edge">
<title>@aws&#45;amplify/notifications&#45;&gt;@aws&#45;amplify/core</title>
<path fill="none" stroke="black" d="M1230.2,-422.71C1290.53,-421.79 1372.23,-414.73 1438.98,-388 1484.26,-369.87 1527.39,-332.58 1553.14,-307.43"/>
<polygon fill="black" stroke="black" points="1555.62,-309.9 1560.24,-300.36 1550.68,-304.93 1555.62,-309.9"/>
</g>
<!-- @aws&#45;amplify/storage -->
<g id="node12" class="node">
<title>@aws&#45;amplify/storage</title>
<path fill="none" stroke="black" d="M996.79,-392C996.79,-392 877.41,-392 877.41,-392 871.41,-392 865.41,-386 865.41,-380 865.41,-380 865.41,-368 865.41,-368 865.41,-362 871.41,-356 877.41,-356 877.41,-356 996.79,-356 996.79,-356 1002.79,-356 1008.79,-362 1008.79,-368 1008.79,-368 1008.79,-380 1008.79,-380 1008.79,-386 1002.79,-392 996.79,-392"/>
<text text-anchor="middle" x="937.1" y="-369.8" font-family="Times,serif" font-size="14.00">@aws&#45;amplify/storage</text>
</g>
<!-- @aws&#45;amplify/storage&#45;&gt;@aws&#45;amplify/core -->
<g id="edge17" class="edge">
<title>@aws&#45;amplify/storage&#45;&gt;@aws&#45;amplify/core</title>
<path fill="none" stroke="black" d="M1008.83,-371.41C1068.11,-368.75 1154.9,-363.75 1230.26,-355 1323.69,-344.16 1347.13,-340.25 1438.98,-320 1461.25,-315.09 1485.29,-308.84 1506.99,-302.83"/>
<polygon fill="black" stroke="black" points="1508.09,-306.15 1516.78,-300.09 1506.2,-299.41 1508.09,-306.15"/>
</g>
<!-- @aws&#45;amplify/ui -->
<g id="node13" class="node">
<title>@aws&#45;amplify/ui</title>
<path fill="none" stroke="black" d="M493.24,-436C493.24,-436 403.94,-436 403.94,-436 397.94,-436 391.94,-430 391.94,-424 391.94,-424 391.94,-412 391.94,-412 391.94,-406 397.94,-400 403.94,-400 403.94,-400 493.24,-400 493.24,-400 499.24,-400 505.24,-406 505.24,-412 505.24,-412 505.24,-424 505.24,-424 505.24,-430 499.24,-436 493.24,-436"/>
<text text-anchor="middle" x="448.59" y="-413.8" font-family="Times,serif" font-size="14.00">@aws&#45;amplify/ui</text>
</g>
<!-- @aws&#45;amplify/ui&#45;&gt;@aws&#45;amplify/core -->
<g id="edge18" class="edge">
<title>@aws&#45;amplify/ui&#45;&gt;@aws&#45;amplify/core</title>
<path fill="none" stroke="black" d="M505.44,-432.86C563.4,-446.96 656.9,-466 739.04,-466 739.04,-466 739.04,-466 1144.89,-466 1277.33,-466 1320.85,-477.87 1438.98,-418 1490.36,-391.96 1534.86,-340.06 1558.76,-308.45"/>
<polygon fill="black" stroke="black" points="1561.8,-310.22 1564.94,-300.11 1556.18,-306.05 1561.8,-310.22"/>
</g>
<!-- aws&#45;amplify -->
<g id="node14" class="node">
<title>aws&#45;amplify</title>
<path fill="none" stroke="black" d="M615.39,-346C615.39,-346 553.43,-346 553.43,-346 547.43,-346 541.43,-340 541.43,-334 541.43,-334 541.43,-322 541.43,-322 541.43,-316 547.43,-310 553.43,-310 553.43,-310 615.39,-310 615.39,-310 621.39,-310 627.39,-316 627.39,-322 627.39,-322 627.39,-334 627.39,-334 627.39,-340 621.39,-346 615.39,-346"/>
<text text-anchor="middle" x="584.41" y="-323.8" font-family="Times,serif" font-size="14.00">aws&#45;amplify</text>
</g>
<!-- @aws&#45;amplify/ui&#45;&gt;aws&#45;amplify -->
<g id="edge19" class="edge">
<title>@aws&#45;amplify/ui&#45;&gt;aws&#45;amplify</title>
<path fill="none" stroke="black" d="M480.28,-399.88C488.52,-394.86 497.37,-389.33 505.42,-384 520.61,-373.94 537.05,-362.26 550.9,-352.18"/>
<polygon fill="black" stroke="black" points="553.15,-354.87 559.15,-346.14 549.02,-349.22 553.15,-354.87"/>
</g>
<!-- aws&#45;amplify&#45;&gt;@aws&#45;amplify/analytics -->
<g id="edge26" class="edge">
<title>aws&#45;amplify&#45;&gt;@aws&#45;amplify/analytics</title>
<path fill="none" stroke="black" d="M627.77,-328C719.12,-328 936.17,-328 1057.35,-328"/>
<polygon fill="black" stroke="black" points="1057.69,-331.5 1067.69,-328 1057.69,-324.5 1057.69,-331.5"/>
</g>
<!-- aws&#45;amplify&#45;&gt;@aws&#45;amplify/core -->
<g id="edge29" class="edge">
<title>aws&#45;amplify&#45;&gt;@aws&#45;amplify/core</title>
<path fill="none" stroke="black" d="M627.39,-325.31C709.82,-320.09 898.63,-308.45 1057.51,-301 1217.15,-293.52 1404.47,-287.3 1504.96,-284.18"/>
<polygon fill="black" stroke="black" points="1505.12,-287.67 1515.01,-283.87 1504.9,-280.68 1505.12,-287.67"/>
</g>
<!-- aws&#45;amplify&#45;&gt;@aws&#45;amplify/api -->
<g id="edge27" class="edge">
<title>aws&#45;amplify&#45;&gt;@aws&#45;amplify/api</title>
<path fill="none" stroke="black" d="M593.33,-309.89C605.15,-284.81 629.69,-239.6 663.4,-213 695.84,-187.4 797.88,-152.54 867.51,-130.66"/>
<polygon fill="black" stroke="black" points="868.61,-133.98 877.11,-127.66 866.52,-127.3 868.61,-133.98"/>
</g>
<!-- aws&#45;amplify&#45;&gt;@aws&#45;amplify/auth -->
<g id="edge28" class="edge">
<title>aws&#45;amplify&#45;&gt;@aws&#45;amplify/auth</title>
<path fill="none" stroke="black" d="M607.72,-309.94C622.85,-298.21 643.63,-283.1 663.4,-272 669.41,-268.62 675.86,-265.38 682.35,-262.34"/>
<polygon fill="black" stroke="black" points="684.19,-265.35 691.86,-258.04 681.3,-258.97 684.19,-265.35"/>
</g>
<!-- aws&#45;amplify&#45;&gt;@aws&#45;amplify/datastore -->
<g id="edge30" class="edge">
<title>aws&#45;amplify&#45;&gt;@aws&#45;amplify/datastore</title>
<path fill="none" stroke="black" d="M591.01,-309.76C601.31,-278.54 625.7,-214.04 663.4,-171 672.54,-160.56 684.3,-151.28 695.8,-143.61"/>
<polygon fill="black" stroke="black" points="697.95,-146.39 704.5,-138.05 694.18,-140.49 697.95,-146.39"/>
</g>
<!-- aws&#45;amplify&#45;&gt;@aws&#45;amplify/notifications -->
<g id="edge31" class="edge">
<title>aws&#45;amplify&#45;&gt;@aws&#45;amplify/notifications</title>
<path fill="none" stroke="black" d="M618.8,-346.15C632.33,-352.88 648.29,-360.07 663.4,-365 791.88,-406.93 948.8,-417.86 1047.32,-420.2"/>
<polygon fill="black" stroke="black" points="1047.48,-423.71 1057.56,-420.42 1047.63,-416.71 1047.48,-423.71"/>
</g>
<!-- aws&#45;amplify&#45;&gt;@aws&#45;amplify/storage -->
<g id="edge32" class="edge">
<title>aws&#45;amplify&#45;&gt;@aws&#45;amplify/storage</title>
<path fill="none" stroke="black" d="M627.42,-336.03C639.05,-338.12 651.69,-340.26 663.4,-342 727.63,-351.52 800.72,-359.97 855.05,-365.79"/>
<polygon fill="black" stroke="black" points="855,-369.31 865.32,-366.89 855.74,-362.35 855,-369.31"/>
</g>
<!-- @aws&#45;amplify/ui&#45;react -->
<g id="node15" class="node">
<title>@aws&#45;amplify/ui&#45;react</title>
<path fill="none" stroke="black" d="M133.26,-415C133.26,-415 12.25,-415 12.25,-415 6.25,-415 0.25,-409 0.25,-403 0.25,-403 0.25,-391 0.25,-391 0.25,-385 6.25,-379 12.25,-379 12.25,-379 133.26,-379 133.26,-379 139.26,-379 145.26,-385 145.26,-391 145.26,-391 145.26,-403 145.26,-403 145.26,-409 139.26,-415 133.26,-415"/>
<text text-anchor="middle" x="72.75" y="-392.8" font-family="Times,serif" font-size="14.00">@aws&#45;amplify/ui&#45;react</text>
</g>
<!-- @aws&#45;amplify/ui&#45;react&#45;&gt;@aws&#45;amplify/core -->
<g id="edge20" class="edge">
<title>@aws&#45;amplify/ui&#45;react&#45;&gt;@aws&#45;amplify/core</title>
<path fill="none" stroke="black" d="M110.69,-415.03C176.66,-445.52 319.83,-504 447.59,-504 447.59,-504 447.59,-504 1144.89,-504 1277.33,-504 1324.73,-522.98 1438.98,-456 1499.01,-420.81 1543.14,-348.93 1564.01,-309.46"/>
<polygon fill="black" stroke="black" points="1567.34,-310.66 1568.81,-300.17 1561.12,-307.44 1567.34,-310.66"/>
</g>
<!-- @aws&#45;amplify/ui&#45;react&#45;&gt;@aws&#45;amplify/ui -->
<g id="edge21" class="edge">
<title>@aws&#45;amplify/ui&#45;react&#45;&gt;@aws&#45;amplify/ui</title>
<path fill="none" stroke="black" d="M145.39,-401.02C213.51,-404.85 315.15,-410.56 381.41,-414.28"/>
<polygon fill="black" stroke="black" points="381.55,-417.8 391.73,-414.86 381.94,-410.81 381.55,-417.8"/>
</g>
<!-- @aws&#45;amplify/ui&#45;react&#45;&gt;aws&#45;amplify -->
<g id="edge23" class="edge">
<title>@aws&#45;amplify/ui&#45;react&#45;&gt;aws&#45;amplify</title>
<path fill="none" stroke="black" d="M104.63,-378.75C125.56,-367.38 154.27,-353.69 181.51,-347 304.05,-316.9 453.76,-319.82 531.29,-324.15"/>
<polygon fill="black" stroke="black" points="531.09,-327.64 541.28,-324.73 531.51,-320.65 531.09,-327.64"/>
</g>
<!-- @aws&#45;amplify/ui&#45;react&#45;core -->
<g id="node16" class="node">
<title>@aws&#45;amplify/ui&#45;react&#45;core</title>
<path fill="none" stroke="black" d="M343.9,-392C343.9,-392 193.38,-392 193.38,-392 187.38,-392 181.38,-386 181.38,-380 181.38,-380 181.38,-368 181.38,-368 181.38,-362 187.38,-356 193.38,-356 193.38,-356 343.9,-356 343.9,-356 349.9,-356 355.9,-362 355.9,-368 355.9,-368 355.9,-380 355.9,-380 355.9,-386 349.9,-392 343.9,-392"/>
<text text-anchor="middle" x="268.64" y="-369.8" font-family="Times,serif" font-size="14.00">@aws&#45;amplify/ui&#45;react&#45;core</text>
</g>
<!-- @aws&#45;amplify/ui&#45;react&#45;&gt;@aws&#45;amplify/ui&#45;react&#45;core -->
<g id="edge22" class="edge">
<title>@aws&#45;amplify/ui&#45;react&#45;&gt;@aws&#45;amplify/ui&#45;react&#45;core</title>
<path fill="none" stroke="black" d="M145.4,-388.5C153.77,-387.51 162.42,-386.48 171.06,-385.46"/>
<polygon fill="black" stroke="black" points="171.66,-388.91 181.18,-384.26 170.84,-381.96 171.66,-388.91"/>
</g>
<!-- @aws&#45;amplify/ui&#45;react&#45;core&#45;&gt;@aws&#45;amplify/ui -->
<g id="edge24" class="edge">
<title>@aws&#45;amplify/ui&#45;react&#45;core&#45;&gt;@aws&#45;amplify/ui</title>
<path fill="none" stroke="black" d="M342.53,-392.02C355.48,-395.23 368.9,-398.54 381.65,-401.7"/>
<polygon fill="black" stroke="black" points="381.15,-405.18 391.7,-404.18 382.83,-398.38 381.15,-405.18"/>
</g>
<!-- @aws&#45;amplify/ui&#45;react&#45;core&#45;&gt;aws&#45;amplify -->
<g id="edge25" class="edge">
<title>@aws&#45;amplify/ui&#45;react&#45;core&#45;&gt;aws&#45;amplify</title>
<path fill="none" stroke="black" d="M356,-363.18C400.67,-357.35 456.04,-349.78 505.42,-342 513.82,-340.68 522.71,-339.18 531.36,-337.66"/>
<polygon fill="black" stroke="black" points="532.13,-341.08 541.37,-335.89 530.91,-334.19 532.13,-341.08"/>
</g>
</g>
</svg>
