<?xml version="1.0" encoding="UTF-8" standalone="no"?>
<!DOCTYPE svg PUBLIC "-//W3C//DTD SVG 1.1//EN"
 "http://www.w3.org/Graphics/SVG/1.1/DTD/svg11.dtd">
<!-- Generated by graphviz version 5.0.0 (20220707.1540)
 -->
<!-- Title: G Pages: 1 -->
<svg width="573pt" height="368pt"
 viewBox="0.00 0.00 572.51 368.00" xmlns="http://www.w3.org/2000/svg" xmlns:xlink="http://www.w3.org/1999/xlink">
<g id="graph0" class="graph" transform="scale(1 1) rotate(0) translate(4 364)">
<title>G</title>
<polygon fill="white" stroke="transparent" points="-4,4 -4,-364 568.51,-364 568.51,4 -4,4"/>
<!-- @aws&#45;amplify/ui&#45;react -->
<g id="node1" class="node">
<title>@aws&#45;amplify/ui&#45;react</title>
<path fill="none" stroke="black" d="M133.26,-285C133.26,-285 12.25,-285 12.25,-285 6.25,-285 0.25,-279 0.25,-273 0.25,-273 0.25,-261 0.25,-261 0.25,-255 6.25,-249 12.25,-249 12.25,-249 133.26,-249 133.26,-249 139.26,-249 145.26,-255 145.26,-261 145.26,-261 145.26,-273 145.26,-273 145.26,-279 139.26,-285 133.26,-285"/>
<text text-anchor="middle" x="72.75" y="-262.8" font-family="Times,serif" font-size="14.00">@aws&#45;amplify/ui&#45;react</text>
</g>
<!-- @aws&#45;amplify/core -->
<g id="node2" class="node">
<title>@aws&#45;amplify/core</title>
<path fill="none" stroke="black" d="M529.49,-360C529.49,-360 426.79,-360 426.79,-360 420.79,-360 414.79,-354 414.79,-348 414.79,-348 414.79,-336 414.79,-336 414.79,-330 420.79,-324 426.79,-324 426.79,-324 529.49,-324 529.49,-324 535.49,-324 541.49,-330 541.49,-336 541.49,-336 541.49,-348 541.49,-348 541.49,-354 535.49,-360 529.49,-360"/>
<text text-anchor="middle" x="478.14" y="-337.8" font-family="Times,serif" font-size="14.00">@aws&#45;amplify/core</text>
</g>
<!-- @aws&#45;amplify/ui&#45;react&#45;&gt;@aws&#45;amplify/core -->
<g id="edge1" class="edge">
<title>@aws&#45;amplify/ui&#45;react&#45;&gt;@aws&#45;amplify/core</title>
<path fill="none" stroke="black" d="M102.23,-285.18C123.26,-297.61 153.05,-313.19 181.51,-321 255.5,-341.3 343.61,-345.08 404.27,-344.69"/>
<polygon fill="black" stroke="black" points="404.56,-348.19 414.52,-344.58 404.48,-341.19 404.56,-348.19"/>
</g>
<!-- @aws&#45;amplify/ui -->
<g id="node3" class="node">
<title>@aws&#45;amplify/ui</title>
<path fill="none" stroke="black" d="M313.29,-312C313.29,-312 223.98,-312 223.98,-312 217.98,-312 211.98,-306 211.98,-300 211.98,-300 211.98,-288 211.98,-288 211.98,-282 217.98,-276 223.98,-276 223.98,-276 313.29,-276 313.29,-276 319.29,-276 325.29,-282 325.29,-288 325.29,-288 325.29,-300 325.29,-300 325.29,-306 319.29,-312 313.29,-312"/>
<text text-anchor="middle" x="268.64" y="-289.8" font-family="Times,serif" font-size="14.00">@aws&#45;amplify/ui</text>
</g>
<!-- @aws&#45;amplify/ui&#45;react&#45;&gt;@aws&#45;amplify/ui -->
<g id="edge2" class="edge">
<title>@aws&#45;amplify/ui&#45;react&#45;&gt;@aws&#45;amplify/ui</title>
<path fill="none" stroke="black" d="M145.4,-276.98C163.79,-279.54 183.48,-282.28 201.58,-284.8"/>
<polygon fill="black" stroke="black" points="201.35,-288.3 211.74,-286.22 202.31,-281.37 201.35,-288.3"/>
</g>
<!-- @aws&#45;amplify/ui&#45;react&#45;core -->
<g id="node4" class="node">
<title>@aws&#45;amplify/ui&#45;react&#45;core</title>
<path fill="none" stroke="black" d="M343.9,-258C343.9,-258 193.38,-258 193.38,-258 187.38,-258 181.38,-252 181.38,-246 181.38,-246 181.38,-234 181.38,-234 181.38,-228 187.38,-222 193.38,-222 193.38,-222 343.9,-222 343.9,-222 349.9,-222 355.9,-228 355.9,-234 355.9,-234 355.9,-246 355.9,-246 355.9,-252 349.9,-258 343.9,-258"/>
<text text-anchor="middle" x="268.64" y="-235.8" font-family="Times,serif" font-size="14.00">@aws&#45;amplify/ui&#45;react&#45;core</text>
</g>
<!-- @aws&#45;amplify/ui&#45;react&#45;&gt;@aws&#45;amplify/ui&#45;react&#45;core -->
<g id="edge3" class="edge">
<title>@aws&#45;amplify/ui&#45;react&#45;&gt;@aws&#45;amplify/ui&#45;react&#45;core</title>
<path fill="none" stroke="black" d="M145.4,-257.02C153.77,-255.86 162.42,-254.65 171.06,-253.45"/>
<polygon fill="black" stroke="black" points="171.76,-256.89 181.18,-252.04 170.79,-249.95 171.76,-256.89"/>
</g>
<!-- aws&#45;amplify -->
<g id="node5" class="node">
<title>aws&#45;amplify</title>
<path fill="none" stroke="black" d="M299.62,-202C299.62,-202 237.66,-202 237.66,-202 231.66,-202 225.66,-196 225.66,-190 225.66,-190 225.66,-178 225.66,-178 225.66,-172 231.66,-166 237.66,-166 237.66,-166 299.62,-166 299.62,-166 305.62,-166 311.62,-172 311.62,-178 311.62,-178 311.62,-190 311.62,-190 311.62,-196 305.62,-202 299.62,-202"/>
<text text-anchor="middle" x="268.64" y="-179.8" font-family="Times,serif" font-size="14.00">aws&#45;amplify</text>
</g>
<!-- @aws&#45;amplify/ui&#45;react&#45;&gt;aws&#45;amplify -->
<g id="edge4" class="edge">
<title>@aws&#45;amplify/ui&#45;react&#45;&gt;aws&#45;amplify</title>
<path fill="none" stroke="black" d="M106.68,-248.99C127.74,-237.86 155.82,-223.7 181.51,-213 192.54,-208.4 204.59,-203.99 216.09,-200.05"/>
<polygon fill="black" stroke="black" points="217.22,-203.36 225.58,-196.85 214.99,-196.72 217.22,-203.36"/>
</g>
<!-- aws&#45;amplify&#45;&gt;@aws&#45;amplify/core -->
<g id="edge8" class="edge">
<title>aws&#45;amplify&#45;&gt;@aws&#45;amplify/core</title>
<path fill="none" stroke="black" d="M311.87,-190.23C327.36,-194.4 343.97,-201.37 355.77,-213 390,-246.75 357.22,-281.57 391.77,-315 395.82,-318.92 400.43,-322.27 405.37,-325.13"/>
<polygon fill="black" stroke="black" points="404.05,-328.39 414.56,-329.78 407.21,-322.14 404.05,-328.39"/>
</g>
<!-- @aws&#45;amplify/analytics -->
<g id="node6" class="node">
<title>@aws&#45;amplify/analytics</title>
<path fill="none" stroke="black" d="M542.16,-306C542.16,-306 414.12,-306 414.12,-306 408.12,-306 402.12,-300 402.12,-294 402.12,-294 402.12,-282 402.12,-282 402.12,-276 408.12,-270 414.12,-270 414.12,-270 542.16,-270 542.16,-270 548.16,-270 554.16,-276 554.16,-282 554.16,-282 554.16,-294 554.16,-294 554.16,-300 548.16,-306 542.16,-306"/>
<text text-anchor="middle" x="478.14" y="-283.8" font-family="Times,serif" font-size="14.00">@aws&#45;amplify/analytics</text>
</g>
<!-- aws&#45;amplify&#45;&gt;@aws&#45;amplify/analytics -->
<g id="edge5" class="edge">
<title>aws&#45;amplify&#45;&gt;@aws&#45;amplify/analytics</title>
<path fill="none" stroke="black" d="M311.92,-192.75C326.72,-197.18 342.85,-203.66 355.77,-213 377.38,-228.63 370.01,-245.58 391.77,-261 393.67,-262.35 395.65,-263.64 397.68,-264.86"/>
<polygon fill="black" stroke="black" points="396.44,-268.17 406.9,-269.83 399.76,-262.01 396.44,-268.17"/>
</g>
<!-- @aws&#45;amplify/api -->
<g id="node7" class="node">
<title>@aws&#45;amplify/api</title>
<path fill="none" stroke="black" d="M526,-252C526,-252 430.27,-252 430.27,-252 424.27,-252 418.27,-246 418.27,-240 418.27,-240 418.27,-228 418.27,-228 418.27,-222 424.27,-216 430.27,-216 430.27,-216 526,-216 526,-216 532,-216 538,-222 538,-228 538,-228 538,-240 538,-240 538,-246 532,-252 526,-252"/>
<text text-anchor="middle" x="478.14" y="-229.8" font-family="Times,serif" font-size="14.00">@aws&#45;amplify/api</text>
</g>
<!-- aws&#45;amplify&#45;&gt;@aws&#45;amplify/api -->
<g id="edge6" class="edge">
<title>aws&#45;amplify&#45;&gt;@aws&#45;amplify/api</title>
<path fill="none" stroke="black" d="M311.63,-194.12C339.32,-200.79 376.23,-209.69 408.17,-217.38"/>
<polygon fill="black" stroke="black" points="407.37,-220.79 417.91,-219.73 409.01,-213.98 407.37,-220.79"/>
</g>
<!-- @aws&#45;amplify/auth -->
<g id="node8" class="node">
<title>@aws&#45;amplify/auth</title>
<path fill="none" stroke="black" d="M529.5,-198C529.5,-198 426.77,-198 426.77,-198 420.77,-198 414.77,-192 414.77,-186 414.77,-186 414.77,-174 414.77,-174 414.77,-168 420.77,-162 426.77,-162 426.77,-162 529.5,-162 529.5,-162 535.5,-162 541.5,-168 541.5,-174 541.5,-174 541.5,-186 541.5,-186 541.5,-192 535.5,-198 529.5,-198"/>
<text text-anchor="middle" x="478.14" y="-175.8" font-family="Times,serif" font-size="14.00">@aws&#45;amplify/auth</text>
</g>
<!-- aws&#45;amplify&#45;&gt;@aws&#45;amplify/auth -->
<g id="edge7" class="edge">
<title>aws&#45;amplify&#45;&gt;@aws&#45;amplify/auth</title>
<path fill="none" stroke="black" d="M311.63,-183.19C338.23,-182.68 373.34,-182 404.38,-181.4"/>
<polygon fill="black" stroke="black" points="404.8,-184.9 414.73,-181.2 404.67,-177.9 404.8,-184.9"/>
</g>
<!-- @aws&#45;amplify/datastore -->
<g id="node9" class="node">
<title>@aws&#45;amplify/datastore</title>
<path fill="none" stroke="black" d="M542.93,-144C542.93,-144 413.35,-144 413.35,-144 407.35,-144 401.35,-138 401.35,-132 401.35,-132 401.35,-120 401.35,-120 401.35,-114 407.35,-108 413.35,-108 413.35,-108 542.93,-108 542.93,-108 548.93,-108 554.93,-114 554.93,-120 554.93,-120 554.93,-132 554.93,-132 554.93,-138 548.93,-144 542.93,-144"/>
<text text-anchor="middle" x="478.14" y="-121.8" font-family="Times,serif" font-size="14.00">@aws&#45;amplify/datastore</text>
</g>
<!-- aws&#45;amplify&#45;&gt;@aws&#45;amplify/datastore -->
<g id="edge9" class="edge">
<title>aws&#45;amplify&#45;&gt;@aws&#45;amplify/datastore</title>
<path fill="none" stroke="black" d="M311.63,-172.26C337.81,-164.95 372.24,-155.32 402.91,-146.75"/>
<polygon fill="black" stroke="black" points="404.04,-150.07 412.72,-144.01 402.15,-143.33 404.04,-150.07"/>
</g>
<!-- @aws&#45;amplify/notifications -->
<g id="node10" class="node">
<title>@aws&#45;amplify/notifications</title>
<path fill="none" stroke="black" d="M552.39,-90C552.39,-90 403.89,-90 403.89,-90 397.89,-90 391.89,-84 391.89,-78 391.89,-78 391.89,-66 391.89,-66 391.89,-60 397.89,-54 403.89,-54 403.89,-54 552.39,-54 552.39,-54 558.39,-54 564.39,-60 564.39,-66 564.39,-66 564.39,-78 564.39,-78 564.39,-84 558.39,-90 552.39,-90"/>
<text text-anchor="middle" x="478.14" y="-67.8" font-family="Times,serif" font-size="14.00">@aws&#45;amplify/notifications</text>
</g>
<!-- aws&#45;amplify&#45;&gt;@aws&#45;amplify/notifications -->
<g id="edge10" class="edge">
<title>aws&#45;amplify&#45;&gt;@aws&#45;amplify/notifications</title>
<path fill="none" stroke="black" d="M291.32,-165.86C314.8,-146.96 353.98,-117.59 391.77,-99 395.35,-97.24 399.08,-95.55 402.88,-93.96"/>
<polygon fill="black" stroke="black" points="404.45,-97.1 412.45,-90.16 401.87,-90.59 404.45,-97.1"/>
</g>
<!-- @aws&#45;amplify/storage -->
<g id="node11" class="node">
<title>@aws&#45;amplify/storage</title>
<path fill="none" stroke="black" d="M537.83,-36C537.83,-36 418.45,-36 418.45,-36 412.45,-36 406.45,-30 406.45,-24 406.45,-24 406.45,-12 406.45,-12 406.45,-6 412.45,0 418.45,0 418.45,0 537.83,0 537.83,0 543.83,0 549.83,-6 549.83,-12 549.83,-12 549.83,-24 549.83,-24 549.83,-30 543.83,-36 537.83,-36"/>
<text text-anchor="middle" x="478.14" y="-13.8" font-family="Times,serif" font-size="14.00">@aws&#45;amplify/storage</text>
</g>
<!-- aws&#45;amplify&#45;&gt;@aws&#45;amplify/storage -->
<g id="edge11" class="edge">
<title>aws&#45;amplify&#45;&gt;@aws&#45;amplify/storage</title>
<path fill="none" stroke="black" d="M280.81,-165.83C299.93,-136.23 341.73,-77.65 391.77,-45 394.07,-43.5 396.46,-42.08 398.91,-40.73"/>
<polygon fill="black" stroke="black" points="400.66,-43.77 408.05,-36.17 397.54,-37.5 400.66,-43.77"/>
</g>
</g>
</svg>
