<?xml version="1.0" encoding="UTF-8" standalone="no"?>
<!DOCTYPE svg PUBLIC "-//W3C//DTD SVG 1.1//EN"
 "http://www.w3.org/Graphics/SVG/1.1/DTD/svg11.dtd">
<!-- Generated by graphviz version 5.0.0 (20220707.1540)
 -->
<!-- Title: G Pages: 1 -->
<svg width="303pt" height="368pt"
 viewBox="0.00 0.00 302.73 368.00" xmlns="http://www.w3.org/2000/svg" xmlns:xlink="http://www.w3.org/1999/xlink">
<g id="graph0" class="graph" transform="scale(1 1) rotate(0) translate(4 364)">
<title>G</title>
<polygon fill="white" stroke="transparent" points="-4,4 -4,-364 298.73,-364 298.73,4 -4,4"/>
<!-- aws&#45;amplify -->
<g id="node1" class="node">
<title>aws&#45;amplify</title>
<path fill="none" stroke="black" d="M73.97,-198C73.97,-198 12.01,-198 12.01,-198 6.01,-198 0.01,-192 0.01,-186 0.01,-186 0.01,-174 0.01,-174 0.01,-168 6.01,-162 12.01,-162 12.01,-162 73.97,-162 73.97,-162 79.97,-162 85.97,-168 85.97,-174 85.97,-174 85.97,-186 85.97,-186 85.97,-192 79.97,-198 73.97,-198"/>
<text text-anchor="middle" x="42.99" y="-175.8" font-family="Times,serif" font-size="14.00">aws&#45;amplify</text>
</g>
<!-- @aws&#45;amplify/analytics -->
<g id="node2" class="node">
<title>@aws&#45;amplify/analytics</title>
<path fill="none" stroke="black" d="M272.37,-360C272.37,-360 144.33,-360 144.33,-360 138.33,-360 132.33,-354 132.33,-348 132.33,-348 132.33,-336 132.33,-336 132.33,-330 138.33,-324 144.33,-324 144.33,-324 272.37,-324 272.37,-324 278.37,-324 284.37,-330 284.37,-336 284.37,-336 284.37,-348 284.37,-348 284.37,-354 278.37,-360 272.37,-360"/>
<text text-anchor="middle" x="208.35" y="-337.8" font-family="Times,serif" font-size="14.00">@aws&#45;amplify/analytics</text>
</g>
<!-- aws&#45;amplify&#45;&gt;@aws&#45;amplify/analytics -->
<g id="edge1" class="edge">
<title>aws&#45;amplify&#45;&gt;@aws&#45;amplify/analytics</title>
<path fill="none" stroke="black" d="M49.65,-198.16C59.59,-227.11 82.94,-283.65 121.98,-315 123.57,-316.28 125.22,-317.5 126.93,-318.66"/>
<polygon fill="black" stroke="black" points="125.44,-321.85 135.82,-323.99 129.04,-315.84 125.44,-321.85"/>
</g>
<!-- @aws&#45;amplify/api -->
<g id="node3" class="node">
<title>@aws&#45;amplify/api</title>
<path fill="none" stroke="black" d="M256.22,-306C256.22,-306 160.49,-306 160.49,-306 154.49,-306 148.49,-300 148.49,-294 148.49,-294 148.49,-282 148.49,-282 148.49,-276 154.49,-270 160.49,-270 160.49,-270 256.22,-270 256.22,-270 262.22,-270 268.22,-276 268.22,-282 268.22,-282 268.22,-294 268.22,-294 268.22,-300 262.22,-306 256.22,-306"/>
<text text-anchor="middle" x="208.35" y="-283.8" font-family="Times,serif" font-size="14.00">@aws&#45;amplify/api</text>
</g>
<!-- aws&#45;amplify&#45;&gt;@aws&#45;amplify/api -->
<g id="edge2" class="edge">
<title>aws&#45;amplify&#45;&gt;@aws&#45;amplify/api</title>
<path fill="none" stroke="black" d="M57.21,-198.34C71.31,-216.66 95.27,-244.43 121.98,-261 127.27,-264.28 132.99,-267.2 138.88,-269.78"/>
<polygon fill="black" stroke="black" points="137.65,-273.06 148.24,-273.57 140.28,-266.57 137.65,-273.06"/>
</g>
<!-- @aws&#45;amplify/auth -->
<g id="node4" class="node">
<title>@aws&#45;amplify/auth</title>
<path fill="none" stroke="black" d="M259.72,-252C259.72,-252 156.99,-252 156.99,-252 150.99,-252 144.99,-246 144.99,-240 144.99,-240 144.99,-228 144.99,-228 144.99,-222 150.99,-216 156.99,-216 156.99,-216 259.72,-216 259.72,-216 265.72,-216 271.72,-222 271.72,-228 271.72,-228 271.72,-240 271.72,-240 271.72,-246 265.72,-252 259.72,-252"/>
<text text-anchor="middle" x="208.35" y="-229.8" font-family="Times,serif" font-size="14.00">@aws&#45;amplify/auth</text>
</g>
<!-- aws&#45;amplify&#45;&gt;@aws&#45;amplify/auth -->
<g id="edge3" class="edge">
<title>aws&#45;amplify&#45;&gt;@aws&#45;amplify/auth</title>
<path fill="none" stroke="black" d="M86.01,-194.78C97.64,-198.81 110.28,-203.13 121.98,-207 127.79,-208.92 133.83,-210.9 139.9,-212.85"/>
<polygon fill="black" stroke="black" points="138.83,-216.19 149.42,-215.91 140.97,-209.52 138.83,-216.19"/>
</g>
<!-- @aws&#45;amplify/core -->
<g id="node5" class="node">
<title>@aws&#45;amplify/core</title>
<path fill="none" stroke="black" d="M259.71,-198C259.71,-198 157,-198 157,-198 151,-198 145,-192 145,-186 145,-186 145,-174 145,-174 145,-168 151,-162 157,-162 157,-162 259.71,-162 259.71,-162 265.71,-162 271.71,-168 271.71,-174 271.71,-174 271.71,-186 271.71,-186 271.71,-192 265.71,-198 259.71,-198"/>
<text text-anchor="middle" x="208.35" y="-175.8" font-family="Times,serif" font-size="14.00">@aws&#45;amplify/core</text>
</g>
<!-- aws&#45;amplify&#45;&gt;@aws&#45;amplify/core -->
<g id="edge4" class="edge">
<title>aws&#45;amplify&#45;&gt;@aws&#45;amplify/core</title>
<path fill="none" stroke="black" d="M86.06,-180C100.86,-180 117.94,-180 134.53,-180"/>
<polygon fill="black" stroke="black" points="134.77,-183.5 144.77,-180 134.77,-176.5 134.77,-183.5"/>
</g>
<!-- @aws&#45;amplify/datastore -->
<g id="node6" class="node">
<title>@aws&#45;amplify/datastore</title>
<path fill="none" stroke="black" d="M273.15,-144C273.15,-144 143.56,-144 143.56,-144 137.56,-144 131.56,-138 131.56,-132 131.56,-132 131.56,-120 131.56,-120 131.56,-114 137.56,-108 143.56,-108 143.56,-108 273.15,-108 273.15,-108 279.15,-108 285.15,-114 285.15,-120 285.15,-120 285.15,-132 285.15,-132 285.15,-138 279.15,-144 273.15,-144"/>
<text text-anchor="middle" x="208.35" y="-121.8" font-family="Times,serif" font-size="14.00">@aws&#45;amplify/datastore</text>
</g>
<!-- aws&#45;amplify&#45;&gt;@aws&#45;amplify/datastore -->
<g id="edge5" class="edge">
<title>aws&#45;amplify&#45;&gt;@aws&#45;amplify/datastore</title>
<path fill="none" stroke="black" d="M86.01,-165.22C97.64,-161.19 110.28,-156.87 121.98,-153 127.79,-151.08 133.83,-149.1 139.9,-147.15"/>
<polygon fill="black" stroke="black" points="140.97,-150.48 149.42,-144.09 138.83,-143.81 140.97,-150.48"/>
</g>
<!-- @aws&#45;amplify/notifications -->
<g id="node7" class="node">
<title>@aws&#45;amplify/notifications</title>
<path fill="none" stroke="black" d="M282.6,-90C282.6,-90 134.11,-90 134.11,-90 128.11,-90 122.11,-84 122.11,-78 122.11,-78 122.11,-66 122.11,-66 122.11,-60 128.11,-54 134.11,-54 134.11,-54 282.6,-54 282.6,-54 288.6,-54 294.6,-60 294.6,-66 294.6,-66 294.6,-78 294.6,-78 294.6,-84 288.6,-90 282.6,-90"/>
<text text-anchor="middle" x="208.35" y="-67.8" font-family="Times,serif" font-size="14.00">@aws&#45;amplify/notifications</text>
</g>
<!-- aws&#45;amplify&#45;&gt;@aws&#45;amplify/notifications -->
<g id="edge6" class="edge">
<title>aws&#45;amplify&#45;&gt;@aws&#45;amplify/notifications</title>
<path fill="none" stroke="black" d="M57.21,-161.66C71.31,-143.34 95.27,-115.57 121.98,-99 124.6,-97.37 127.33,-95.83 130.14,-94.38"/>
<polygon fill="black" stroke="black" points="131.77,-97.48 139.31,-90.03 128.77,-91.16 131.77,-97.48"/>
</g>
<!-- @aws&#45;amplify/storage -->
<g id="node8" class="node">
<title>@aws&#45;amplify/storage</title>
<path fill="none" stroke="black" d="M268.04,-36C268.04,-36 148.66,-36 148.66,-36 142.66,-36 136.66,-30 136.66,-24 136.66,-24 136.66,-12 136.66,-12 136.66,-6 142.66,0 148.66,0 148.66,0 268.04,0 268.04,0 274.04,0 280.04,-6 280.04,-12 280.04,-12 280.04,-24 280.04,-24 280.04,-30 274.04,-36 268.04,-36"/>
<text text-anchor="middle" x="208.35" y="-13.8" font-family="Times,serif" font-size="14.00">@aws&#45;amplify/storage</text>
</g>
<!-- aws&#45;amplify&#45;&gt;@aws&#45;amplify/storage -->
<g id="edge7" class="edge">
<title>aws&#45;amplify&#45;&gt;@aws&#45;amplify/storage</title>
<path fill="none" stroke="black" d="M49.65,-161.84C59.59,-132.89 82.94,-76.35 121.98,-45 123.8,-43.54 125.7,-42.15 127.67,-40.84"/>
<polygon fill="black" stroke="black" points="129.81,-43.65 136.66,-35.56 126.26,-37.61 129.81,-43.65"/>
</g>
</g>
</svg>
