<?xml version="1.0" encoding="UTF-8" standalone="no"?>
<!DOCTYPE svg PUBLIC "-//W3C//DTD SVG 1.1//EN"
 "http://www.w3.org/Graphics/SVG/1.1/DTD/svg11.dtd">
<!-- Generated by graphviz version 5.0.0 (20220707.1540)
 -->
<!-- Title: G Pages: 1 -->
<svg width="1253pt" height="298pt"
 viewBox="0.00 0.00 1252.50 298.00" xmlns="http://www.w3.org/2000/svg" xmlns:xlink="http://www.w3.org/1999/xlink">
<g id="graph0" class="graph" transform="scale(1 1) rotate(0) translate(4 294)">
<title>G</title>
<polygon fill="white" stroke="transparent" points="-4,4 -4,-294 1248.5,-294 1248.5,4 -4,4"/>
<!-- root -->
<g id="node1" class="node">
<title>root</title>
<path fill="none" stroke="black" d="M42,-167C42,-167 12,-167 12,-167 6,-167 0,-161 0,-155 0,-155 0,-143 0,-143 0,-137 6,-131 12,-131 12,-131 42,-131 42,-131 48,-131 54,-137 54,-143 54,-143 54,-155 54,-155 54,-161 48,-167 42,-167"/>
<text text-anchor="middle" x="27" y="-144.8" font-family="Times,serif" font-size="14.00">root</text>
</g>
<!-- aws&#45;amplify -->
<g id="node2" class="node">
<title>aws&#45;amplify</title>
<path fill="none" stroke="black" d="M163.97,-167C163.97,-167 102.01,-167 102.01,-167 96.01,-167 90.01,-161 90.01,-155 90.01,-155 90.01,-143 90.01,-143 90.01,-137 96.01,-131 102.01,-131 102.01,-131 163.97,-131 163.97,-131 169.97,-131 175.97,-137 175.97,-143 175.97,-143 175.97,-155 175.97,-155 175.97,-161 169.97,-167 163.97,-167"/>
<text text-anchor="middle" x="132.99" y="-144.8" font-family="Times,serif" font-size="14.00">aws&#45;amplify</text>
</g>
<!-- root&#45;&gt;aws&#45;amplify -->
<g id="edge1" class="edge">
<title>root&#45;&gt;aws&#45;amplify</title>
<path fill="none" stroke="black" d="M54.24,-149C62.11,-149 71.03,-149 79.95,-149"/>
<polygon fill="black" stroke="black" points="79.97,-152.5 89.97,-149 79.97,-145.5 79.97,-152.5"/>
</g>
<!-- @aws&#45;amplify/analytics -->
<g id="node3" class="node">
<title>@aws&#45;amplify/analytics</title>
<path fill="none" stroke="black" d="M362.37,-290C362.37,-290 234.33,-290 234.33,-290 228.33,-290 222.33,-284 222.33,-278 222.33,-278 222.33,-266 222.33,-266 222.33,-260 228.33,-254 234.33,-254 234.33,-254 362.37,-254 362.37,-254 368.37,-254 374.37,-260 374.37,-266 374.37,-266 374.37,-278 374.37,-278 374.37,-284 368.37,-290 362.37,-290"/>
<text text-anchor="middle" x="298.35" y="-267.8" font-family="Times,serif" font-size="14.00">@aws&#45;amplify/analytics</text>
</g>
<!-- aws&#45;amplify&#45;&gt;@aws&#45;amplify/analytics -->
<g id="edge2" class="edge">
<title>aws&#45;amplify&#45;&gt;@aws&#45;amplify/analytics</title>
<path fill="none" stroke="black" d="M144.26,-167.27C157.31,-188.87 181.8,-224.47 211.98,-245 214.12,-246.45 216.34,-247.83 218.62,-249.14"/>
<polygon fill="black" stroke="black" points="217.2,-252.35 227.69,-253.84 220.42,-246.13 217.2,-252.35"/>
</g>
<!-- @aws&#45;amplify/api -->
<g id="node4" class="node">
<title>@aws&#45;amplify/api</title>
<path fill="none" stroke="black" d="M553,-194C553,-194 457.27,-194 457.27,-194 451.27,-194 445.27,-188 445.27,-182 445.27,-182 445.27,-170 445.27,-170 445.27,-164 451.27,-158 457.27,-158 457.27,-158 553,-158 553,-158 559,-158 565,-164 565,-170 565,-170 565,-182 565,-182 565,-188 559,-194 553,-194"/>
<text text-anchor="middle" x="505.14" y="-171.8" font-family="Times,serif" font-size="14.00">@aws&#45;amplify/api</text>
</g>
<!-- aws&#45;amplify&#45;&gt;@aws&#45;amplify/api -->
<g id="edge3" class="edge">
<title>aws&#45;amplify&#45;&gt;@aws&#45;amplify/api</title>
<path fill="none" stroke="black" d="M176.09,-152.07C239.07,-156.66 358.52,-165.38 434.59,-170.93"/>
<polygon fill="black" stroke="black" points="434.8,-174.45 445.02,-171.69 435.31,-167.47 434.8,-174.45"/>
</g>
<!-- @aws&#45;amplify/auth -->
<g id="node5" class="node">
<title>@aws&#45;amplify/auth</title>
<path fill="none" stroke="black" d="M349.72,-144C349.72,-144 246.99,-144 246.99,-144 240.99,-144 234.99,-138 234.99,-132 234.99,-132 234.99,-120 234.99,-120 234.99,-114 240.99,-108 246.99,-108 246.99,-108 349.72,-108 349.72,-108 355.72,-108 361.72,-114 361.72,-120 361.72,-120 361.72,-132 361.72,-132 361.72,-138 355.72,-144 349.72,-144"/>
<text text-anchor="middle" x="298.35" y="-121.8" font-family="Times,serif" font-size="14.00">@aws&#45;amplify/auth</text>
</g>
<!-- aws&#45;amplify&#45;&gt;@aws&#45;amplify/auth -->
<g id="edge4" class="edge">
<title>aws&#45;amplify&#45;&gt;@aws&#45;amplify/auth</title>
<path fill="none" stroke="black" d="M176.06,-143.08C190.86,-140.99 207.94,-138.59 224.53,-136.25"/>
<polygon fill="black" stroke="black" points="225.36,-139.67 234.77,-134.81 224.38,-132.74 225.36,-139.67"/>
</g>
<!-- @aws&#45;amplify/datastore -->
<g id="node6" class="node">
<title>@aws&#45;amplify/datastore</title>
<path fill="none" stroke="black" d="M363.15,-236C363.15,-236 233.56,-236 233.56,-236 227.56,-236 221.56,-230 221.56,-224 221.56,-224 221.56,-212 221.56,-212 221.56,-206 227.56,-200 233.56,-200 233.56,-200 363.15,-200 363.15,-200 369.15,-200 375.15,-206 375.15,-212 375.15,-212 375.15,-224 375.15,-224 375.15,-230 369.15,-236 363.15,-236"/>
<text text-anchor="middle" x="298.35" y="-213.8" font-family="Times,serif" font-size="14.00">@aws&#45;amplify/datastore</text>
</g>
<!-- aws&#45;amplify&#45;&gt;@aws&#45;amplify/datastore -->
<g id="edge5" class="edge">
<title>aws&#45;amplify&#45;&gt;@aws&#45;amplify/datastore</title>
<path fill="none" stroke="black" d="M170.6,-167.15C183.56,-173.37 198.32,-180.21 211.98,-186 220.13,-189.45 228.8,-192.93 237.37,-196.25"/>
<polygon fill="black" stroke="black" points="236.37,-199.61 246.96,-199.92 238.88,-193.08 236.37,-199.61"/>
</g>
<!-- @aws&#45;amplify/notifications -->
<g id="node7" class="node">
<title>@aws&#45;amplify/notifications</title>
<path fill="none" stroke="black" d="M372.6,-90C372.6,-90 224.11,-90 224.11,-90 218.11,-90 212.11,-84 212.11,-78 212.11,-78 212.11,-66 212.11,-66 212.11,-60 218.11,-54 224.11,-54 224.11,-54 372.6,-54 372.6,-54 378.6,-54 384.6,-60 384.6,-66 384.6,-66 384.6,-78 384.6,-78 384.6,-84 378.6,-90 372.6,-90"/>
<text text-anchor="middle" x="298.35" y="-67.8" font-family="Times,serif" font-size="14.00">@aws&#45;amplify/notifications</text>
</g>
<!-- aws&#45;amplify&#45;&gt;@aws&#45;amplify/notifications -->
<g id="edge6" class="edge">
<title>aws&#45;amplify&#45;&gt;@aws&#45;amplify/notifications</title>
<path fill="none" stroke="black" d="M158.66,-130.79C173.54,-120.43 193.19,-107.8 211.98,-99 215.97,-97.13 220.12,-95.35 224.35,-93.65"/>
<polygon fill="black" stroke="black" points="225.61,-96.91 233.69,-90.07 223.1,-90.38 225.61,-96.91"/>
</g>
<!-- @aws&#45;amplify/storage -->
<g id="node8" class="node">
<title>@aws&#45;amplify/storage</title>
<path fill="none" stroke="black" d="M358.04,-36C358.04,-36 238.66,-36 238.66,-36 232.66,-36 226.66,-30 226.66,-24 226.66,-24 226.66,-12 226.66,-12 226.66,-6 232.66,0 238.66,0 238.66,0 358.04,0 358.04,0 364.04,0 370.04,-6 370.04,-12 370.04,-12 370.04,-24 370.04,-24 370.04,-30 364.04,-36 358.04,-36"/>
<text text-anchor="middle" x="298.35" y="-13.8" font-family="Times,serif" font-size="14.00">@aws&#45;amplify/storage</text>
</g>
<!-- aws&#45;amplify&#45;&gt;@aws&#45;amplify/storage -->
<g id="edge7" class="edge">
<title>aws&#45;amplify&#45;&gt;@aws&#45;amplify/storage</title>
<path fill="none" stroke="black" d="M143.01,-130.82C155.43,-107.6 179.95,-67.72 211.98,-45 213.89,-43.65 215.86,-42.36 217.89,-41.14"/>
<polygon fill="black" stroke="black" points="219.97,-43.99 227.12,-36.17 216.65,-37.83 219.97,-43.99"/>
</g>
<!-- @aws&#45;amplify/api&#45;graphql -->
<g id="node9" class="node">
<title>@aws&#45;amplify/api&#45;graphql</title>
<path fill="none" stroke="black" d="M780.99,-240C780.99,-240 637.41,-240 637.41,-240 631.41,-240 625.41,-234 625.41,-228 625.41,-228 625.41,-216 625.41,-216 625.41,-210 631.41,-204 637.41,-204 637.41,-204 780.99,-204 780.99,-204 786.99,-204 792.99,-210 792.99,-216 792.99,-216 792.99,-228 792.99,-228 792.99,-234 786.99,-240 780.99,-240"/>
<text text-anchor="middle" x="709.2" y="-217.8" font-family="Times,serif" font-size="14.00">@aws&#45;amplify/api&#45;graphql</text>
</g>
<!-- @aws&#45;amplify/api&#45;&gt;@aws&#45;amplify/api&#45;graphql -->
<g id="edge8" class="edge">
<title>@aws&#45;amplify/api&#45;&gt;@aws&#45;amplify/api&#45;graphql</title>
<path fill="none" stroke="black" d="M565.13,-189.43C582.01,-193.27 600.8,-197.55 619.07,-201.71"/>
<polygon fill="black" stroke="black" points="618.32,-205.13 628.85,-203.94 619.88,-198.3 618.32,-205.13"/>
</g>
<!-- @aws&#45;amplify/api&#45;rest -->
<g id="node10" class="node">
<title>@aws&#45;amplify/api&#45;rest</title>
<path fill="none" stroke="black" d="M975.45,-171C975.45,-171 854.96,-171 854.96,-171 848.96,-171 842.96,-165 842.96,-159 842.96,-159 842.96,-147 842.96,-147 842.96,-141 848.96,-135 854.96,-135 854.96,-135 975.45,-135 975.45,-135 981.45,-135 987.45,-141 987.45,-147 987.45,-147 987.45,-159 987.45,-159 987.45,-165 981.45,-171 975.45,-171"/>
<text text-anchor="middle" x="915.21" y="-148.8" font-family="Times,serif" font-size="14.00">@aws&#45;amplify/api&#45;rest</text>
</g>
<!-- @aws&#45;amplify/api&#45;&gt;@aws&#45;amplify/api&#45;rest -->
<g id="edge9" class="edge">
<title>@aws&#45;amplify/api&#45;&gt;@aws&#45;amplify/api&#45;rest</title>
<path fill="none" stroke="black" d="M565.26,-168.05C584.46,-165.75 605.88,-163.46 625.55,-162 695.36,-156.83 774.88,-154.62 832.76,-153.68"/>
<polygon fill="black" stroke="black" points="833,-157.18 842.94,-153.53 832.89,-150.18 833,-157.18"/>
</g>
<!-- @aws&#45;amplify/data&#45;schema -->
<g id="node11" class="node">
<title>@aws&#45;amplify/data&#45;schema</title>
<path fill="none" stroke="black" d="M989.43,-232C989.43,-232 840.98,-232 840.98,-232 834.98,-232 828.98,-226 828.98,-220 828.98,-220 828.98,-208 828.98,-208 828.98,-202 834.98,-196 840.98,-196 840.98,-196 989.43,-196 989.43,-196 995.43,-196 1001.43,-202 1001.43,-208 1001.43,-208 1001.43,-220 1001.43,-220 1001.43,-226 995.43,-232 989.43,-232"/>
<text text-anchor="middle" x="915.21" y="-209.8" font-family="Times,serif" font-size="14.00">@aws&#45;amplify/data&#45;schema</text>
</g>
<!-- @aws&#45;amplify/api&#45;&gt;@aws&#45;amplify/data&#45;schema -->
<g id="edge10" class="edge">
<title>@aws&#45;amplify/api&#45;&gt;@aws&#45;amplify/data&#45;schema</title>
<path fill="none" stroke="black" d="M565.03,-178.37C623.08,-181.06 714.26,-186.26 792.84,-195 801.31,-195.94 810.1,-197.05 818.89,-198.26"/>
<polygon fill="black" stroke="black" points="818.41,-201.72 828.8,-199.65 819.39,-194.79 818.41,-201.72"/>
</g>
<!-- @aws&#45;amplify/react&#45;native -->
<g id="node13" class="node">
<title>@aws&#45;amplify/react&#45;native</title>
<path fill="#ffcccc" stroke="black" d="M577.46,-140C577.46,-140 432.82,-140 432.82,-140 426.82,-140 420.82,-134 420.82,-128 420.82,-128 420.82,-116 420.82,-116 420.82,-110 426.82,-104 432.82,-104 432.82,-104 577.46,-104 577.46,-104 583.46,-104 589.46,-110 589.46,-116 589.46,-116 589.46,-128 589.46,-128 589.46,-134 583.46,-140 577.46,-140"/>
<text text-anchor="middle" x="505.14" y="-117.8" font-family="Times,serif" font-size="14.00">@aws&#45;amplify/react&#45;native</text>
</g>
<!-- @aws&#45;amplify/auth&#45;&gt;@aws&#45;amplify/react&#45;native -->
<g id="edge14" class="edge">
<title>@aws&#45;amplify/auth&#45;&gt;@aws&#45;amplify/react&#45;native</title>
<path fill="none" stroke="black" d="M361.91,-124.78C377.2,-124.48 393.9,-124.15 410.3,-123.83"/>
<polygon fill="black" stroke="black" points="410.53,-127.33 420.46,-123.63 410.4,-120.33 410.53,-127.33"/>
</g>
<!-- @aws&#45;amplify/datastore&#45;&gt;@aws&#45;amplify/api -->
<g id="edge15" class="edge">
<title>@aws&#45;amplify/datastore&#45;&gt;@aws&#45;amplify/api</title>
<path fill="none" stroke="black" d="M375.03,-202.48C394.72,-198.44 415.84,-194.11 435.17,-190.15"/>
<polygon fill="black" stroke="black" points="436,-193.55 445.09,-188.11 434.6,-186.69 436,-193.55"/>
</g>
<!-- @aws&#45;amplify/datastore&#45;&gt;@aws&#45;amplify/api&#45;graphql -->
<g id="edge16" class="edge">
<title>@aws&#45;amplify/datastore&#45;&gt;@aws&#45;amplify/api&#45;graphql</title>
<path fill="none" stroke="black" d="M375.3,-218.74C443.12,-219.41 542.67,-220.38 615.23,-221.09"/>
<polygon fill="black" stroke="black" points="615.25,-224.59 625.28,-221.19 615.32,-217.59 615.25,-224.59"/>
</g>
<!-- @aws&#45;amplify/api&#45;graphql&#45;&gt;@aws&#45;amplify/api&#45;rest -->
<g id="edge11" class="edge">
<title>@aws&#45;amplify/api&#45;graphql&#45;&gt;@aws&#45;amplify/api&#45;rest</title>
<path fill="none" stroke="black" d="M763.53,-203.96C790.36,-194.89 823.05,-183.83 851.11,-174.34"/>
<polygon fill="black" stroke="black" points="852.48,-177.57 860.83,-171.05 850.23,-170.94 852.48,-177.57"/>
</g>
<!-- @aws&#45;amplify/api&#45;graphql&#45;&gt;@aws&#45;amplify/data&#45;schema -->
<g id="edge12" class="edge">
<title>@aws&#45;amplify/api&#45;graphql&#45;&gt;@aws&#45;amplify/data&#45;schema</title>
<path fill="none" stroke="black" d="M792.88,-218.76C801.38,-218.42 810.06,-218.08 818.67,-217.75"/>
<polygon fill="black" stroke="black" points="818.89,-221.24 828.75,-217.35 818.62,-214.25 818.89,-221.24"/>
</g>
<!-- @aws&#45;amplify/data&#45;schema&#45;types -->
<g id="node12" class="node">
<title>@aws&#45;amplify/data&#45;schema&#45;types</title>
<path fill="none" stroke="black" d="M1232.47,-232C1232.47,-232 1049.6,-232 1049.6,-232 1043.6,-232 1037.6,-226 1037.6,-220 1037.6,-220 1037.6,-208 1037.6,-208 1037.6,-202 1043.6,-196 1049.6,-196 1049.6,-196 1232.47,-196 1232.47,-196 1238.47,-196 1244.47,-202 1244.47,-208 1244.47,-208 1244.47,-220 1244.47,-220 1244.47,-226 1238.47,-232 1232.47,-232"/>
<text text-anchor="middle" x="1141.03" y="-209.8" font-family="Times,serif" font-size="14.00">@aws&#45;amplify/data&#45;schema&#45;types</text>
</g>
<!-- @aws&#45;amplify/data&#45;schema&#45;&gt;@aws&#45;amplify/data&#45;schema&#45;types -->
<g id="edge13" class="edge">
<title>@aws&#45;amplify/data&#45;schema&#45;&gt;@aws&#45;amplify/data&#45;schema&#45;types</title>
<path fill="none" stroke="black" d="M1001.46,-214C1009.9,-214 1018.55,-214 1027.21,-214"/>
<polygon fill="black" stroke="black" points="1027.36,-217.5 1037.36,-214 1027.36,-210.5 1027.36,-217.5"/>
</g>
</g>
</svg>
