<?xml version="1.0" encoding="UTF-8" standalone="no"?>
<!DOCTYPE svg PUBLIC "-//W3C//DTD SVG 1.1//EN"
 "http://www.w3.org/Graphics/SVG/1.1/DTD/svg11.dtd">
<!-- Generated by graphviz version 5.0.0 (20220707.1540)
 -->
<!-- Title: G Pages: 1 -->
<svg width="1149pt" height="496pt"
 viewBox="0.00 0.00 1148.50 496.00" xmlns="http://www.w3.org/2000/svg" xmlns:xlink="http://www.w3.org/1999/xlink">
<g id="graph0" class="graph" transform="scale(1 1) rotate(0) translate(4 492)">
<title>G</title>
<polygon fill="white" stroke="transparent" points="-4,4 -4,-492 1144.5,-492 1144.5,4 -4,4"/>
<!-- @aws&#45;amplify/analytics -->
<g id="node1" class="node">
<title>@aws&#45;amplify/analytics</title>
<path fill="none" stroke="black" d="M666.49,-434C666.49,-434 538.45,-434 538.45,-434 532.45,-434 526.45,-428 526.45,-422 526.45,-422 526.45,-410 526.45,-410 526.45,-404 532.45,-398 538.45,-398 538.45,-398 666.49,-398 666.49,-398 672.49,-398 678.49,-404 678.49,-410 678.49,-410 678.49,-422 678.49,-422 678.49,-428 672.49,-434 666.49,-434"/>
<text text-anchor="middle" x="602.47" y="-411.8" font-family="Times,serif" font-size="14.00">@aws&#45;amplify/analytics</text>
</g>
<!-- @aws&#45;amplify/core -->
<g id="node2" class="node">
<title>@aws&#45;amplify/core</title>
<path fill="none" stroke="black" d="M1088.38,-250C1088.38,-250 985.68,-250 985.68,-250 979.68,-250 973.68,-244 973.68,-238 973.68,-238 973.68,-226 973.68,-226 973.68,-220 979.68,-214 985.68,-214 985.68,-214 1088.38,-214 1088.38,-214 1094.38,-214 1100.38,-220 1100.38,-226 1100.38,-226 1100.38,-238 1100.38,-238 1100.38,-244 1094.38,-250 1088.38,-250"/>
<text text-anchor="middle" x="1037.03" y="-227.8" font-family="Times,serif" font-size="14.00">@aws&#45;amplify/core</text>
</g>
<!-- @aws&#45;amplify/analytics&#45;&gt;@aws&#45;amplify/core -->
<g id="edge1" class="edge">
<title>@aws&#45;amplify/analytics&#45;&gt;@aws&#45;amplify/core</title>
<path fill="none" stroke="black" d="M678.59,-422.06C740.61,-423.84 829.23,-418.73 897.57,-384 953.51,-355.57 997.91,-294.51 1020.25,-259.04"/>
<polygon fill="black" stroke="black" points="1023.44,-260.54 1025.7,-250.19 1017.48,-256.87 1023.44,-260.54"/>
</g>
<!-- @aws&#45;amplify/api -->
<g id="node3" class="node">
<title>@aws&#45;amplify/api</title>
<path fill="none" stroke="black" d="M443.55,-153C443.55,-153 347.82,-153 347.82,-153 341.82,-153 335.82,-147 335.82,-141 335.82,-141 335.82,-129 335.82,-129 335.82,-123 341.82,-117 347.82,-117 347.82,-117 443.55,-117 443.55,-117 449.55,-117 455.55,-123 455.55,-129 455.55,-129 455.55,-141 455.55,-141 455.55,-147 449.55,-153 443.55,-153"/>
<text text-anchor="middle" x="395.68" y="-130.8" font-family="Times,serif" font-size="14.00">@aws&#45;amplify/api</text>
</g>
<!-- @aws&#45;amplify/api&#45;&gt;@aws&#45;amplify/core -->
<g id="edge4" class="edge">
<title>@aws&#45;amplify/api&#45;&gt;@aws&#45;amplify/core</title>
<path fill="none" stroke="black" d="M455.62,-138.3C569.3,-144.99 814.89,-161.13 897.57,-180 928.22,-187 961.24,-199.2 987.33,-210.03"/>
<polygon fill="black" stroke="black" points="986.05,-213.28 996.62,-213.94 988.76,-206.83 986.05,-213.28"/>
</g>
<!-- @aws&#45;amplify/api&#45;graphql -->
<g id="node4" class="node">
<title>@aws&#45;amplify/api&#45;graphql</title>
<path fill="none" stroke="black" d="M674.26,-90C674.26,-90 530.68,-90 530.68,-90 524.68,-90 518.68,-84 518.68,-78 518.68,-78 518.68,-66 518.68,-66 518.68,-60 524.68,-54 530.68,-54 530.68,-54 674.26,-54 674.26,-54 680.26,-54 686.26,-60 686.26,-66 686.26,-66 686.26,-78 686.26,-78 686.26,-84 680.26,-90 674.26,-90"/>
<text text-anchor="middle" x="602.47" y="-67.8" font-family="Times,serif" font-size="14.00">@aws&#45;amplify/api&#45;graphql</text>
</g>
<!-- @aws&#45;amplify/api&#45;&gt;@aws&#45;amplify/api&#45;graphql -->
<g id="edge2" class="edge">
<title>@aws&#45;amplify/api&#45;&gt;@aws&#45;amplify/api&#45;graphql</title>
<path fill="none" stroke="black" d="M455.37,-116.95C479.58,-109.5 507.79,-100.82 532.94,-93.08"/>
<polygon fill="black" stroke="black" points="534.25,-96.34 542.78,-90.06 532.19,-89.65 534.25,-96.34"/>
</g>
<!-- @aws&#45;amplify/api&#45;rest -->
<g id="node5" class="node">
<title>@aws&#45;amplify/api&#45;rest</title>
<path fill="none" stroke="black" d="M871.45,-128C871.45,-128 750.96,-128 750.96,-128 744.96,-128 738.96,-122 738.96,-116 738.96,-116 738.96,-104 738.96,-104 738.96,-98 744.96,-92 750.96,-92 750.96,-92 871.45,-92 871.45,-92 877.45,-92 883.45,-98 883.45,-104 883.45,-104 883.45,-116 883.45,-116 883.45,-122 877.45,-128 871.45,-128"/>
<text text-anchor="middle" x="811.21" y="-105.8" font-family="Times,serif" font-size="14.00">@aws&#45;amplify/api&#45;rest</text>
</g>
<!-- @aws&#45;amplify/api&#45;&gt;@aws&#45;amplify/api&#45;rest -->
<g id="edge3" class="edge">
<title>@aws&#45;amplify/api&#45;&gt;@aws&#45;amplify/api&#45;rest</title>
<path fill="none" stroke="black" d="M455.93,-131.42C527.57,-127.09 648.51,-119.78 728.85,-114.92"/>
<polygon fill="black" stroke="black" points="729.15,-118.41 738.93,-114.31 728.73,-111.42 729.15,-118.41"/>
</g>
<!-- @aws&#45;amplify/data&#45;schema -->
<g id="node6" class="node">
<title>@aws&#45;amplify/data&#45;schema</title>
<path fill="none" stroke="black" d="M885.43,-36C885.43,-36 736.98,-36 736.98,-36 730.98,-36 724.98,-30 724.98,-24 724.98,-24 724.98,-12 724.98,-12 724.98,-6 730.98,0 736.98,0 736.98,0 885.43,0 885.43,0 891.43,0 897.43,-6 897.43,-12 897.43,-12 897.43,-24 897.43,-24 897.43,-30 891.43,-36 885.43,-36"/>
<text text-anchor="middle" x="811.21" y="-13.8" font-family="Times,serif" font-size="14.00">@aws&#45;amplify/data&#45;schema</text>
</g>
<!-- @aws&#45;amplify/api&#45;&gt;@aws&#45;amplify/data&#45;schema -->
<g id="edge5" class="edge">
<title>@aws&#45;amplify/api&#45;&gt;@aws&#45;amplify/data&#45;schema</title>
<path fill="none" stroke="black" d="M414.12,-116.74C435.78,-95.37 474.93,-60.91 516.1,-45 579.28,-20.59 655.58,-14.18 714.62,-13.7"/>
<polygon fill="black" stroke="black" points="714.7,-17.2 724.69,-13.67 714.68,-10.2 714.7,-17.2"/>
</g>
<!-- @aws&#45;amplify/api&#45;graphql&#45;&gt;@aws&#45;amplify/core -->
<g id="edge7" class="edge">
<title>@aws&#45;amplify/api&#45;graphql&#45;&gt;@aws&#45;amplify/core</title>
<path fill="none" stroke="black" d="M686.28,-58.71C747.46,-52.7 831.26,-52.61 897.57,-83 954,-108.86 998.22,-169.46 1020.39,-204.9"/>
<polygon fill="black" stroke="black" points="1017.6,-207.05 1025.8,-213.76 1023.57,-203.4 1017.6,-207.05"/>
</g>
<!-- @aws&#45;amplify/api&#45;graphql&#45;&gt;@aws&#45;amplify/api&#45;rest -->
<g id="edge6" class="edge">
<title>@aws&#45;amplify/api&#45;graphql&#45;&gt;@aws&#45;amplify/api&#45;rest</title>
<path fill="none" stroke="black" d="M686.37,-87.24C700.38,-89.81 714.91,-92.48 728.88,-95.05"/>
<polygon fill="black" stroke="black" points="728.47,-98.53 738.94,-96.9 729.74,-91.65 728.47,-98.53"/>
</g>
<!-- @aws&#45;amplify/api&#45;graphql&#45;&gt;@aws&#45;amplify/data&#45;schema -->
<g id="edge8" class="edge">
<title>@aws&#45;amplify/api&#45;graphql&#45;&gt;@aws&#45;amplify/data&#45;schema</title>
<path fill="none" stroke="black" d="M672.6,-53.94C691.48,-49.01 712.07,-43.63 731.44,-38.57"/>
<polygon fill="black" stroke="black" points="732.35,-41.95 741.14,-36.04 730.58,-35.18 732.35,-41.95"/>
</g>
<!-- @aws&#45;amplify/api&#45;rest&#45;&gt;@aws&#45;amplify/core -->
<g id="edge9" class="edge">
<title>@aws&#45;amplify/api&#45;rest&#45;&gt;@aws&#45;amplify/core</title>
<path fill="none" stroke="black" d="M865.79,-128.05C876.5,-132.22 887.53,-136.94 897.57,-142 935.44,-161.12 975.8,-188.21 1003.11,-207.67"/>
<polygon fill="black" stroke="black" points="1001.34,-210.7 1011.5,-213.69 1005.42,-205.02 1001.34,-210.7"/>
</g>
<!-- @aws&#45;amplify/data&#45;schema&#45;types -->
<g id="node9" class="node">
<title>@aws&#45;amplify/data&#45;schema&#45;types</title>
<path fill="none" stroke="black" d="M1128.47,-36C1128.47,-36 945.6,-36 945.6,-36 939.6,-36 933.6,-30 933.6,-24 933.6,-24 933.6,-12 933.6,-12 933.6,-6 939.6,0 945.6,0 945.6,0 1128.47,0 1128.47,0 1134.47,0 1140.47,-6 1140.47,-12 1140.47,-12 1140.47,-24 1140.47,-24 1140.47,-30 1134.47,-36 1128.47,-36"/>
<text text-anchor="middle" x="1037.03" y="-13.8" font-family="Times,serif" font-size="14.00">@aws&#45;amplify/data&#45;schema&#45;types</text>
</g>
<!-- @aws&#45;amplify/data&#45;schema&#45;&gt;@aws&#45;amplify/data&#45;schema&#45;types -->
<g id="edge12" class="edge">
<title>@aws&#45;amplify/data&#45;schema&#45;&gt;@aws&#45;amplify/data&#45;schema&#45;types</title>
<path fill="none" stroke="black" d="M897.46,-18C905.9,-18 914.55,-18 923.21,-18"/>
<polygon fill="black" stroke="black" points="923.36,-21.5 933.36,-18 923.36,-14.5 923.36,-21.5"/>
</g>
<!-- @aws&#45;amplify/auth -->
<g id="node7" class="node">
<title>@aws&#45;amplify/auth</title>
<path fill="none" stroke="black" d="M249.99,-296C249.99,-296 147.26,-296 147.26,-296 141.26,-296 135.26,-290 135.26,-284 135.26,-284 135.26,-272 135.26,-272 135.26,-266 141.26,-260 147.26,-260 147.26,-260 249.99,-260 249.99,-260 255.99,-260 261.99,-266 261.99,-272 261.99,-272 261.99,-284 261.99,-284 261.99,-290 255.99,-296 249.99,-296"/>
<text text-anchor="middle" x="198.63" y="-273.8" font-family="Times,serif" font-size="14.00">@aws&#45;amplify/auth</text>
</g>
<!-- @aws&#45;amplify/auth&#45;&gt;@aws&#45;amplify/core -->
<g id="edge10" class="edge">
<title>@aws&#45;amplify/auth&#45;&gt;@aws&#45;amplify/core</title>
<path fill="none" stroke="black" d="M262.07,-260.44C277.99,-256.65 295.16,-253.13 311.27,-251 548.18,-219.61 832.32,-224.33 963.33,-228.86"/>
<polygon fill="black" stroke="black" points="963.52,-232.37 973.64,-229.23 963.77,-225.38 963.52,-232.37"/>
</g>
<!-- @aws&#45;amplify/react&#45;native -->
<g id="node8" class="node">
<title>@aws&#45;amplify/react&#45;native</title>
<path fill="none" stroke="black" d="M468.01,-296C468.01,-296 323.36,-296 323.36,-296 317.36,-296 311.36,-290 311.36,-284 311.36,-284 311.36,-272 311.36,-272 311.36,-266 317.36,-260 323.36,-260 323.36,-260 468.01,-260 468.01,-260 474.01,-260 480.01,-266 480.01,-272 480.01,-272 480.01,-284 480.01,-284 480.01,-290 474.01,-296 468.01,-296"/>
<text text-anchor="middle" x="395.68" y="-273.8" font-family="Times,serif" font-size="14.00">@aws&#45;amplify/react&#45;native</text>
</g>
<!-- @aws&#45;amplify/auth&#45;&gt;@aws&#45;amplify/react&#45;native -->
<g id="edge11" class="edge">
<title>@aws&#45;amplify/auth&#45;&gt;@aws&#45;amplify/react&#45;native</title>
<path fill="none" stroke="black" d="M262.15,-278C274.58,-278 287.89,-278 301.1,-278"/>
<polygon fill="black" stroke="black" points="301.16,-281.5 311.16,-278 301.16,-274.5 301.16,-281.5"/>
</g>
<!-- @aws&#45;amplify/datastore -->
<g id="node10" class="node">
<title>@aws&#45;amplify/datastore</title>
<path fill="none" stroke="black" d="M263.42,-210C263.42,-210 133.83,-210 133.83,-210 127.83,-210 121.83,-204 121.83,-198 121.83,-198 121.83,-186 121.83,-186 121.83,-180 127.83,-174 133.83,-174 133.83,-174 263.42,-174 263.42,-174 269.42,-174 275.42,-180 275.42,-186 275.42,-186 275.42,-198 275.42,-198 275.42,-204 269.42,-210 263.42,-210"/>
<text text-anchor="middle" x="198.63" y="-187.8" font-family="Times,serif" font-size="14.00">@aws&#45;amplify/datastore</text>
</g>
<!-- @aws&#45;amplify/datastore&#45;&gt;@aws&#45;amplify/core -->
<g id="edge15" class="edge">
<title>@aws&#45;amplify/datastore&#45;&gt;@aws&#45;amplify/core</title>
<path fill="none" stroke="black" d="M275.36,-193.25C403.58,-195.71 671.51,-202.38 897.57,-218 918.9,-219.47 942.04,-221.6 963.18,-223.76"/>
<polygon fill="black" stroke="black" points="963.07,-227.26 973.38,-224.81 963.79,-220.3 963.07,-227.26"/>
</g>
<!-- @aws&#45;amplify/datastore&#45;&gt;@aws&#45;amplify/api -->
<g id="edge13" class="edge">
<title>@aws&#45;amplify/datastore&#45;&gt;@aws&#45;amplify/api</title>
<path fill="none" stroke="black" d="M261.34,-173.96C281.87,-167.97 304.85,-161.25 325.87,-155.11"/>
<polygon fill="black" stroke="black" points="327.08,-158.4 335.7,-152.24 325.12,-151.68 327.08,-158.4"/>
</g>
<!-- @aws&#45;amplify/datastore&#45;&gt;@aws&#45;amplify/api&#45;graphql -->
<g id="edge14" class="edge">
<title>@aws&#45;amplify/datastore&#45;&gt;@aws&#45;amplify/api&#45;graphql</title>
<path fill="none" stroke="black" d="M217.48,-173.75C238.08,-153.93 273.94,-123.09 311.27,-108 373.88,-82.69 449.77,-73.96 508.24,-71.42"/>
<polygon fill="black" stroke="black" points="508.72,-74.9 518.58,-71.02 508.45,-67.91 508.72,-74.9"/>
</g>
<!-- @aws&#45;amplify/notifications -->
<g id="node11" class="node">
<title>@aws&#45;amplify/notifications</title>
<path fill="none" stroke="black" d="M676.72,-488C676.72,-488 528.22,-488 528.22,-488 522.22,-488 516.22,-482 516.22,-476 516.22,-476 516.22,-464 516.22,-464 516.22,-458 522.22,-452 528.22,-452 528.22,-452 676.72,-452 676.72,-452 682.72,-452 688.72,-458 688.72,-464 688.72,-464 688.72,-476 688.72,-476 688.72,-482 682.72,-488 676.72,-488"/>
<text text-anchor="middle" x="602.47" y="-465.8" font-family="Times,serif" font-size="14.00">@aws&#45;amplify/notifications</text>
</g>
<!-- @aws&#45;amplify/notifications&#45;&gt;@aws&#45;amplify/core -->
<g id="edge16" class="edge">
<title>@aws&#45;amplify/notifications&#45;&gt;@aws&#45;amplify/core</title>
<path fill="none" stroke="black" d="M688.86,-470.49C750.94,-467.18 834.75,-454.83 897.57,-416 959.59,-377.66 1003.52,-300.56 1023.65,-259.39"/>
<polygon fill="black" stroke="black" points="1026.88,-260.75 1028.03,-250.22 1020.57,-257.73 1026.88,-260.75"/>
</g>
<!-- @aws&#45;amplify/storage -->
<g id="node12" class="node">
<title>@aws&#45;amplify/storage</title>
<path fill="none" stroke="black" d="M455.37,-350C455.37,-350 335.99,-350 335.99,-350 329.99,-350 323.99,-344 323.99,-338 323.99,-338 323.99,-326 323.99,-326 323.99,-320 329.99,-314 335.99,-314 335.99,-314 455.37,-314 455.37,-314 461.37,-314 467.37,-320 467.37,-326 467.37,-326 467.37,-338 467.37,-338 467.37,-344 461.37,-350 455.37,-350"/>
<text text-anchor="middle" x="395.68" y="-327.8" font-family="Times,serif" font-size="14.00">@aws&#45;amplify/storage</text>
</g>
<!-- @aws&#45;amplify/storage&#45;&gt;@aws&#45;amplify/core -->
<g id="edge17" class="edge">
<title>@aws&#45;amplify/storage&#45;&gt;@aws&#45;amplify/core</title>
<path fill="none" stroke="black" d="M467.55,-320.92C589.93,-301.77 839.63,-262.72 963.3,-243.38"/>
<polygon fill="black" stroke="black" points="964.08,-246.8 973.42,-241.79 963,-239.88 964.08,-246.8"/>
</g>
<!-- aws&#45;amplify -->
<g id="node13" class="node">
<title>aws&#45;amplify</title>
<path fill="none" stroke="black" d="M73.97,-350C73.97,-350 12.01,-350 12.01,-350 6.01,-350 0.01,-344 0.01,-338 0.01,-338 0.01,-326 0.01,-326 0.01,-320 6.01,-314 12.01,-314 12.01,-314 73.97,-314 73.97,-314 79.97,-314 85.97,-320 85.97,-326 85.97,-326 85.97,-338 85.97,-338 85.97,-344 79.97,-350 73.97,-350"/>
<text text-anchor="middle" x="42.99" y="-327.8" font-family="Times,serif" font-size="14.00">aws&#45;amplify</text>
</g>
<!-- aws&#45;amplify&#45;&gt;@aws&#45;amplify/analytics -->
<g id="edge18" class="edge">
<title>aws&#45;amplify&#45;&gt;@aws&#45;amplify/analytics</title>
<path fill="none" stroke="black" d="M60.96,-350.07C75.59,-364.32 98.09,-383.2 121.98,-392 252.85,-440.2 417.49,-435.64 515.85,-426.71"/>
<polygon fill="black" stroke="black" points="516.41,-430.17 526.03,-425.74 515.75,-423.2 516.41,-430.17"/>
</g>
<!-- aws&#45;amplify&#45;&gt;@aws&#45;amplify/core -->
<g id="edge21" class="edge">
<title>aws&#45;amplify&#45;&gt;@aws&#45;amplify/core</title>
<path fill="none" stroke="black" d="M86.36,-340.47C97.88,-342.54 110.38,-344.56 121.98,-346 205.67,-356.35 226.99,-356.11 311.27,-359 573.99,-368.01 643.69,-349.19 897.57,-281 925.63,-273.46 956.14,-262.93 981.36,-253.56"/>
<polygon fill="black" stroke="black" points="982.62,-256.82 990.75,-250.03 980.16,-250.27 982.62,-256.82"/>
</g>
<!-- aws&#45;amplify&#45;&gt;@aws&#45;amplify/api -->
<g id="edge19" class="edge">
<title>aws&#45;amplify&#45;&gt;@aws&#45;amplify/api</title>
<path fill="none" stroke="black" d="M46.57,-313.99C52.65,-278.82 71.39,-201.25 121.98,-165 180.91,-122.78 266.15,-120.16 325.6,-124.97"/>
<polygon fill="black" stroke="black" points="325.37,-128.47 335.65,-125.88 326,-121.49 325.37,-128.47"/>
</g>
<!-- aws&#45;amplify&#45;&gt;@aws&#45;amplify/auth -->
<g id="edge20" class="edge">
<title>aws&#45;amplify&#45;&gt;@aws&#45;amplify/auth</title>
<path fill="none" stroke="black" d="M85.97,-317.24C101.57,-311.76 119.6,-305.43 136.55,-299.47"/>
<polygon fill="black" stroke="black" points="138.11,-302.63 146.39,-296.01 135.79,-296.02 138.11,-302.63"/>
</g>
<!-- aws&#45;amplify&#45;&gt;@aws&#45;amplify/datastore -->
<g id="edge22" class="edge">
<title>aws&#45;amplify&#45;&gt;@aws&#45;amplify/datastore</title>
<path fill="none" stroke="black" d="M60.04,-313.91C75.34,-297 99.35,-271.38 121.98,-251 135.4,-238.91 151.03,-226.47 164.59,-216.15"/>
<polygon fill="black" stroke="black" points="166.85,-218.83 172.73,-210.02 162.63,-213.24 166.85,-218.83"/>
</g>
<!-- aws&#45;amplify&#45;&gt;@aws&#45;amplify/notifications -->
<g id="edge23" class="edge">
<title>aws&#45;amplify&#45;&gt;@aws&#45;amplify/notifications</title>
<path fill="none" stroke="black" d="M53.97,-350.06C66.74,-371.22 90.95,-405.49 121.98,-422 242.48,-486.1 404.14,-487.99 505.55,-480.93"/>
<polygon fill="black" stroke="black" points="506.07,-484.4 515.78,-480.18 505.55,-477.42 506.07,-484.4"/>
</g>
<!-- aws&#45;amplify&#45;&gt;@aws&#45;amplify/storage -->
<g id="edge24" class="edge">
<title>aws&#45;amplify&#45;&gt;@aws&#45;amplify/storage</title>
<path fill="none" stroke="black" d="M86.29,-332C142.46,-332 242.82,-332 313.78,-332"/>
<polygon fill="black" stroke="black" points="314.03,-335.5 324.03,-332 314.03,-328.5 314.03,-335.5"/>
</g>
</g>
</svg>
